<svg width="44" height="44" viewBox="0 0 44 44" fill="none" xmlns="http://www.w3.org/2000/svg">
<rect width="44" height="44" rx="22" fill="#282828" fill-opacity="0.2"/>
<path d="M31.707 21.2928L23.707 13.2928C23.5671 13.153 23.389 13.0578 23.195 13.0192C23.0011 12.9806 22.8 13.0004 22.6173 13.0761C22.4346 13.1518 22.2785 13.2799 22.1686 13.4443C22.0587 13.6087 22 13.802 22 13.9998V17.5448C19.2683 17.7976 16.7292 19.0606 14.8797 21.0868C13.0302 23.113 12.0033 25.7564 12 28.4998V29.9998C12.0002 30.2074 12.0649 30.4098 12.1853 30.5789C12.3056 30.748 12.4756 30.8755 12.6717 30.9436C12.8678 31.0118 13.0802 31.0172 13.2795 30.9592C13.4788 30.9011 13.6551 30.7825 13.784 30.6198C14.7638 29.4549 15.9659 28.4969 17.3201 27.8017C18.6743 27.1065 20.1533 26.6881 21.671 26.5708C21.721 26.5648 21.846 26.5548 22 26.5448V29.9998C22 30.1975 22.0587 30.3908 22.1686 30.5552C22.2785 30.7197 22.4346 30.8478 22.6173 30.9235C22.8 30.9991 23.0011 31.0189 23.195 30.9804C23.389 30.9418 23.5671 30.8466 23.707 30.7068L31.707 22.7068C31.8945 22.5193 31.9998 22.265 31.9998 21.9998C31.9998 21.7346 31.8945 21.4803 31.707 21.2928ZM24 27.5858V25.4998C24 25.2346 23.8946 24.9802 23.7071 24.7927C23.5196 24.6051 23.2652 24.4998 23 24.4998C22.745 24.4998 21.704 24.5498 21.438 24.5848C18.7428 24.8328 16.1773 25.8568 14.052 27.5328C14.2932 25.3272 15.3395 23.2881 16.9906 21.8059C18.6416 20.3238 20.7813 19.5026 23 19.4998C23.2652 19.4998 23.5196 19.3944 23.7071 19.2069C23.8946 19.0194 24 18.765 24 18.4998V16.4138L29.586 21.9998L24 27.5858Z" fill="white"/>
</svg>
