<svg width="94" height="110" viewBox="0 0 94 110" fill="none" xmlns="http://www.w3.org/2000/svg">
<g clip-path="url(#clip0_1432_8644)">
<path d="M0 88.799H8.90029V82.206H12.3156V88.799H25.9417V91.5747H0V88.799ZM19.2838 85.9192H15.9378V77.4181H6.62375V74.5383H19.2838V85.9192Z" fill="#282828"/>
<path d="M31.2529 90.2212C32.7362 90.2212 33.7364 91.2626 33.7364 92.7192C33.7364 94.1758 32.7362 95.2172 31.2529 95.2172C29.7697 95.2172 28.7695 94.1758 28.7695 92.7192C28.7695 91.2626 29.7697 90.2212 31.2529 90.2212ZM29.356 74.3989H33.1509L32.702 88.105H29.8039L29.355 74.3989H29.356Z" fill="#282828"/>
<path d="M53.0884 91.1929H49.7424V81.408H40.9456V78.4929H53.0884V91.1929ZM50.7426 100.874H60.4011V97.2303H50.7426V94.4889H63.7481V103.406H54.0545V107.223H64.4029V109.999H50.7426V100.874ZM60.4362 75.9605C59.4702 75.3363 58.47 74.6767 57.5039 74.0868C57.8835 73.3232 58.2973 72.5605 58.711 71.7969L63.7823 74.2605V91.6444H60.4362V75.9605Z" fill="#282828"/>
<path d="M68.0593 88.7636H79.3396V85.6757H74.8548V74.3989H87.4114V77.2444H78.1667V82.9H87.6876V85.6757H82.7549V88.7636H94.001V91.5394H68.0603V88.7636H68.0593ZM81.0297 104.656C77.8564 104.656 75.0275 102.504 75.0275 99.2778C75.0275 96.0515 77.8564 93.8646 81.0297 93.8646C84.203 93.8646 87.0319 96.0161 87.0319 99.2778C87.0319 102.539 84.2381 104.656 81.0297 104.656ZM81.0297 102.019C82.4436 102.019 83.8927 100.978 83.8927 99.2778C83.8927 97.5777 82.4436 96.5363 81.0297 96.5363C79.6158 96.5363 78.1667 97.6121 78.1667 99.2778C78.1667 100.943 79.5806 102.019 81.0297 102.019Z" fill="#282828"/>
<path d="M63.1676 57.9299H68.6243V42.1037C68.6243 39.5861 67.5382 37.2402 65.5651 35.498C63.6926 33.8441 61.2267 32.9333 58.6203 32.9333H51.3545C51.3389 32.9333 51.3233 32.9333 51.3077 32.9342V38.422C51.3077 38.422 51.3087 38.422 51.3096 38.422H58.6203C59.9006 38.422 61.0881 38.848 61.9644 39.6224C61.9654 39.6224 61.9664 39.6244 61.9673 39.6253C62.1625 39.7981 62.2347 40.0739 62.1557 40.3232C61.3272 42.9409 59.884 45.3398 57.8973 47.3382C54.6254 50.6293 50.2753 52.4421 45.648 52.4421C41.0208 52.4421 36.6706 50.6293 33.3988 47.3382C30.1269 44.0471 28.3246 39.6715 28.3246 35.0171C28.3246 30.3626 30.1269 25.987 33.3988 22.6959C34.3404 21.7487 35.3718 20.9252 36.4735 20.2313L34.1345 15.2432C34.1043 15.2599 34.074 15.2765 34.0438 15.2942C32.4093 16.2679 30.9017 17.4457 29.5405 18.8149C27.4493 20.9184 25.807 23.3683 24.6595 26.0979C23.471 28.9247 22.8679 31.9252 22.8679 35.018C22.8679 38.1108 23.471 41.1114 24.6595 43.9382C25.807 46.6668 27.4493 49.1177 29.5405 51.2211C31.6316 53.3245 34.0672 54.9765 36.7809 56.1307C39.5912 57.3262 42.5742 57.9328 45.649 57.9328C48.7237 57.9328 51.7068 57.3262 54.5171 56.1307C57.2298 54.9765 59.6664 53.3245 61.7575 51.2211C62.2542 50.7215 62.7236 50.2023 63.1685 49.6654V57.9328L63.1676 57.9299Z" fill="#282828"/>
<path d="M56.3535 26.409C49.115 26.409 43.2261 20.4855 43.2261 13.2045C43.2261 5.92353 49.115 0 56.3535 0C63.592 0 69.481 5.92353 69.481 13.2045C69.481 20.4855 63.592 26.409 56.3535 26.409ZM56.3535 5.48871C52.1234 5.48871 48.6828 8.94959 48.6828 13.2045C48.6828 17.4594 52.1234 20.9203 56.3535 20.9203C60.5836 20.9203 64.0243 17.4594 64.0243 13.2045C64.0243 8.94959 60.5836 5.48871 56.3535 5.48871Z" fill="#282828"/>
</g>
<defs>
<clipPath id="clip0_1432_8644">
<rect width="94" height="110" fill="white"/>
</clipPath>
</defs>
</svg>
