<svg width="24" height="24" viewBox="0 0 24 24" fill="none" xmlns="http://www.w3.org/2000/svg">
<rect width="24" height="24" rx="12" fill="#AAEB2F"/>
<path d="M10.446 15.0356L17.5708 8.24053C17.739 8.08018 17.9351 8 18.1593 8C18.3835 8 18.5797 8.08018 18.7478 8.24053C18.9159 8.40089 19 8.59145 19 8.8122C19 9.03296 18.9159 9.22325 18.7478 9.38307L11.0344 16.7595C10.8663 16.9198 10.6701 17 10.446 17C10.2218 17 10.0256 16.9198 9.85748 16.7595L6.24251 13.3118C6.07437 13.1514 5.99366 12.9612 6.00039 12.7409C6.00711 12.5207 6.09483 12.3302 6.26352 12.1693C6.43222 12.0084 6.63203 11.9282 6.86294 11.9287C7.09385 11.9293 7.29337 12.0094 7.46151 12.1693L10.446 15.0356Z" fill="white"/>
</svg>
