<svg width="40" height="40" viewBox="0 0 40 40" fill="none" xmlns="http://www.w3.org/2000/svg">
<path d="M25.701 27.403C23.9419 28.5187 21.9011 29.1095 19.818 29.106C14.426 29.106 9.94 25.226 9 20.106C9.43092 17.7778 10.6016 15.6507 12.338 14.041L9.212 10.914L10.626 9.5L30.425 29.298L29.011 30.713L25.701 27.403ZM13.754 15.456C12.3949 16.6917 11.4479 18.3148 11.041 20.106C11.3533 21.4725 11.9803 22.7471 12.872 23.8286C13.7637 24.91 14.8956 25.7684 16.1776 26.3353C17.4595 26.9022 18.856 27.1621 20.2561 27.0941C21.6561 27.0262 23.021 26.6324 24.242 25.944L22.214 23.916C21.3507 24.4598 20.3282 24.6941 19.3142 24.5804C18.3003 24.4668 17.355 24.0119 16.6336 23.2904C15.9121 22.569 15.4572 21.6237 15.3436 20.6098C15.2299 19.5958 15.4642 18.5733 16.008 17.71L13.754 15.456ZM20.732 22.434L17.49 19.193C17.3121 19.6459 17.2702 20.141 17.3695 20.6173C17.4688 21.0937 17.705 21.5308 18.0491 21.8749C18.3932 22.219 18.8303 22.4552 19.3067 22.5545C19.783 22.6538 20.2791 22.6119 20.732 22.434ZM28.624 24.699L27.193 23.268C27.863 22.3159 28.3396 21.2416 28.596 20.106C28.3242 18.9156 27.8132 17.7929 27.0941 16.8062C26.3749 15.8195 25.4625 14.9893 24.4125 14.3662C23.3625 13.743 22.1967 13.3399 20.986 13.1814C19.7753 13.0229 18.5451 13.1122 17.37 13.444L15.792 11.866C17.039 11.376 18.398 11.106 19.818 11.106C25.21 11.106 29.696 14.986 30.637 20.106C30.3306 21.772 29.6409 23.3442 28.624 24.699ZM19.541 15.615C19.6323 15.609 19.7247 15.606 19.818 15.606C20.4324 15.6059 21.0403 15.7317 21.6043 15.9755C22.1683 16.2193 22.6763 16.576 23.0972 17.0237C23.518 17.4713 23.8428 18.0004 24.0513 18.5783C24.2599 19.1562 24.348 19.7708 24.31 20.384L19.541 15.615Z" fill="#7E7E7E"/>
</svg>
