<svg width="40" height="40" viewBox="0 0 40 40" fill="none" xmlns="http://www.w3.org/2000/svg">
<path d="M19.818 11C25.21 11 29.696 14.88 30.637 20C29.697 25.12 25.21 29 19.818 29C14.426 29 9.94 25.12 9 20C9.94 14.88 14.426 11 19.818 11ZM19.818 27C21.8576 26.9998 23.8368 26.3071 25.4315 25.0355C27.0261 23.7638 28.1419 21.9884 28.596 20C28.1406 18.0128 27.0245 16.239 25.43 14.9685C23.8355 13.6981 21.8572 13.0063 19.8185 13.0063C17.7798 13.0063 15.8015 13.6981 14.207 14.9685C12.6125 16.239 11.4964 18.0128 11.041 20C11.4951 21.9883 12.6107 23.7635 14.2051 25.0352C15.7996 26.3068 17.7785 26.9996 19.818 27ZM19.818 24.5C18.6245 24.5 17.4799 24.0259 16.636 23.182C15.7921 22.3381 15.318 21.1935 15.318 20C15.318 18.8065 15.7921 17.6619 16.636 16.818C17.4799 15.9741 18.6245 15.5 19.818 15.5C21.0115 15.5 22.1561 15.9741 23 16.818C23.8439 17.6619 24.318 18.8065 24.318 20C24.318 21.1935 23.8439 22.3381 23 23.182C22.1561 24.0259 21.0115 24.5 19.818 24.5ZM19.818 22.5C20.481 22.5 21.1169 22.2366 21.5858 21.7678C22.0546 21.2989 22.318 20.663 22.318 20C22.318 19.337 22.0546 18.7011 21.5858 18.2322C21.1169 17.7634 20.481 17.5 19.818 17.5C19.155 17.5 18.5191 17.7634 18.0502 18.2322C17.5814 18.7011 17.318 19.337 17.318 20C17.318 20.663 17.5814 21.2989 18.0502 21.7678C18.5191 22.2366 19.155 22.5 19.818 22.5Z" fill="#7E7E7E"/>
</svg>
