<svg width="384" height="119" viewBox="0 0 384 119" fill="none" xmlns="http://www.w3.org/2000/svg">
<g clip-path="url(#clip0_250_4290)">
<path d="M116.807 52.5892H142.104V33.8912H151.813V52.5892H190.543V60.4604H116.807V52.5892ZM171.619 44.4206H162.107V20.3092H135.634V12.1406H171.619V44.4175V44.4206Z" fill="#231815"/>
<path d="M205.645 56.6218C209.862 56.6218 212.704 59.5743 212.704 63.7071C212.704 67.84 209.859 70.7925 205.645 70.7925C201.43 70.7925 198.585 67.84 198.585 63.7071C198.585 59.5743 201.427 56.6218 205.645 56.6218ZM200.251 11.7491H211.035L209.76 50.6198H201.524L200.248 11.7491H200.251Z" fill="#231815"/>
<path d="M267.71 59.3771H258.198V31.6245H233.194V23.3588H267.71V59.3771ZM261.043 86.8354H288.499V76.5032H261.043V68.7291H298.011V94.0208H270.458V104.844H299.873V112.716H261.043V86.8354ZM288.596 16.1764C285.85 14.4043 283.005 12.5351 280.26 10.8631C281.339 8.69959 282.515 6.53303 283.692 4.36951L298.104 11.3577V60.6606H288.593V16.1764H288.596Z" fill="#231815"/>
<path d="M310.265 52.489H342.328V43.7317H329.581V11.7491H365.273V19.8176H338.993V35.8574H366.056V43.7287H352.033V52.4859H384V60.3572H310.265V52.4859V52.489ZM347.132 97.5619C338.11 97.5619 330.071 91.4597 330.071 82.308C330.071 73.1563 338.11 66.957 347.132 66.957C356.154 66.957 364.193 73.0592 364.193 82.308C364.193 91.5568 356.251 97.5619 347.132 97.5619ZM347.132 90.0821C351.153 90.0821 355.271 87.1297 355.271 82.308C355.271 77.4863 351.153 74.5339 347.132 74.5339C343.111 74.5339 338.993 77.5834 338.993 82.308C338.993 87.0326 343.014 90.0821 347.132 90.0821Z" fill="#231815"/>
<path d="M82.969 119H94.2041V86.4895C94.2041 81.3189 91.9667 76.4972 87.9063 72.9197C84.0514 69.5242 78.9751 67.652 73.6085 67.652H58.6485C58.6153 67.652 58.585 67.652 58.5518 67.652V78.9248C58.5518 78.9248 58.5518 78.9248 58.5548 78.9248H73.6054C76.2419 78.9248 78.6878 79.8017 80.4898 81.3887C80.4898 81.3887 80.4958 81.3917 80.4958 81.3948C80.898 81.7498 81.0461 82.3172 80.8828 82.83C79.1776 88.207 76.2056 93.1348 72.1149 97.2404C65.3787 104.001 56.4233 107.724 46.8964 107.724C37.3696 107.724 28.4142 104.001 21.678 97.2404C14.9418 90.4797 11.232 81.4919 11.232 71.9305C11.232 62.3691 14.9418 53.3812 21.678 46.6206C23.616 44.6755 25.7415 42.9853 28.0091 41.5592L23.1927 31.312C23.1293 31.3454 23.0688 31.3788 23.0053 31.4152C19.6402 33.4148 16.5382 35.8363 13.7354 38.6462C9.43008 42.9671 6.04989 48.0012 3.68556 53.6057C1.23961 59.4136 0 65.5795 0 71.9305C0 78.2815 1.23961 84.4474 3.68859 90.2552C6.04989 95.8597 9.43311 100.894 13.7385 105.215C18.0438 109.536 23.0597 112.928 28.644 115.301C34.4308 117.756 40.5714 119.003 46.9025 119.003C53.2336 119.003 59.3741 117.759 65.161 115.301C70.7453 112.931 75.7612 109.536 80.0665 105.215C81.0884 104.189 82.0559 103.121 82.972 102.02V119.003L82.969 119Z" fill="#231815"/>
<path d="M68.9403 54.249C54.0378 54.249 41.9138 42.081 41.9138 27.1245C41.9138 12.1679 54.0378 0 68.9403 0C83.8428 0 95.9667 12.1679 95.9667 27.1245C95.9667 42.081 83.8428 54.249 68.9403 54.249ZM68.9403 11.2758C60.2328 11.2758 53.1489 18.3854 53.1489 27.1245C53.1489 35.8636 60.2328 42.9731 68.9403 42.9731C77.6478 42.9731 84.7317 35.8636 84.7317 27.1245C84.7317 18.3854 77.6478 11.2758 68.9403 11.2758Z" fill="#231815"/>
</g>
<defs>
<clipPath id="clip0_250_4290">
<rect width="384" height="119" fill="white"/>
</clipPath>
</defs>
</svg>
