<svg width="291" height="339" viewBox="0 0 291 339" fill="none" xmlns="http://www.w3.org/2000/svg">
<g clip-path="url(#clip0_250_4261)">
<path d="M0 273.662H27.553V253.344H38.126V273.662H80.3089V282.217H0V273.662ZM59.6977 264.787H49.3393V238.589H20.5054V229.714H59.6977V264.787Z" fill="#231815"/>
<path d="M96.7513 278.045C101.343 278.045 104.439 281.255 104.439 285.744C104.439 290.233 101.343 293.442 96.7513 293.442C92.1596 293.442 89.0632 290.233 89.0632 285.744C89.0632 281.255 92.1596 278.045 96.7513 278.045ZM90.8788 229.284H102.627L101.237 271.524H92.2653L90.8757 229.284H90.8788Z" fill="#231815"/>
<path d="M164.348 281.04H153.99V250.885H126.757V241.901H164.348V281.04ZM157.086 310.875H186.987V299.646H157.086V291.198H197.348V318.679H167.339V330.443H199.375V338.997H157.086V310.875ZM187.095 234.097C184.105 232.173 181.008 230.14 178.018 228.322C179.193 225.969 180.474 223.618 181.755 221.265L197.454 228.858V282.431H187.095V234.097Z" fill="#231815"/>
<path d="M210.694 273.553H245.615V264.037H231.731V229.284H270.603V238.053H241.984V255.483H271.458V264.037H256.188V273.553H291.003V282.108H210.697V273.553H210.694ZM250.847 322.529C241.023 322.529 232.266 315.899 232.266 305.956C232.266 296.013 241.023 289.274 250.847 289.274C260.671 289.274 269.428 295.904 269.428 305.956C269.428 316.008 260.78 322.529 250.847 322.529ZM250.847 314.405C255.224 314.405 259.71 311.195 259.71 305.956C259.71 300.717 255.224 297.508 250.847 297.508C246.47 297.508 241.984 300.823 241.984 305.956C241.984 311.089 246.361 314.405 250.847 314.405Z" fill="#231815"/>
<path d="M195.551 178.529H212.443V129.756C212.443 121.997 209.081 114.767 202.973 109.398C197.176 104.301 189.542 101.494 181.474 101.494H158.98C158.932 101.494 158.884 101.494 158.835 101.497V118.409C158.835 118.409 158.838 118.409 158.841 118.409H181.474C185.437 118.409 189.113 119.722 191.826 122.109C191.829 122.109 191.832 122.115 191.835 122.118C192.439 122.65 192.663 123.5 192.418 124.269C189.853 132.336 185.386 139.729 179.235 145.888C169.106 156.03 155.639 161.617 141.315 161.617C126.99 161.617 113.523 156.03 103.394 145.888C93.2652 135.745 87.6857 122.26 87.6857 107.916C87.6857 93.5721 93.2652 80.0871 103.394 69.9446C106.309 67.0256 109.502 64.4877 112.913 62.3491L105.672 46.9766C105.578 47.028 105.484 47.0794 105.391 47.1339C100.331 50.1346 95.6637 53.7644 91.4497 57.9842C84.976 64.4665 79.892 72.0166 76.3395 80.4289C72.6601 89.1406 70.7932 98.3877 70.7932 107.919C70.7932 117.451 72.6601 126.698 76.3395 135.409C79.892 143.819 84.976 151.372 91.4497 157.854C97.9233 164.336 105.463 169.427 113.864 172.985C122.564 176.669 131.799 178.538 141.318 178.538C150.836 178.538 160.071 176.669 168.771 172.985C177.169 169.427 184.712 164.336 191.186 157.854C192.723 156.314 194.176 154.714 195.554 153.06V178.538L195.551 178.529Z" fill="#231815"/>
<path d="M174.456 81.3878C152.048 81.3878 133.817 63.1326 133.817 40.6939C133.817 18.2552 152.048 0 174.456 0C196.865 0 215.095 18.2552 215.095 40.6939C215.095 63.1326 196.865 81.3878 174.456 81.3878ZM174.456 16.9152C161.361 16.9152 150.709 27.581 150.709 40.6939C150.709 53.8068 161.361 64.4726 174.456 64.4726C187.551 64.4726 198.203 53.8068 198.203 40.6939C198.203 27.581 187.551 16.9152 174.456 16.9152Z" fill="#231815"/>
</g>
<defs>
<clipPath id="clip0_250_4261">
<rect width="291" height="339" fill="white"/>
</clipPath>
</defs>
</svg>
