<svg width="255" height="339" viewBox="0 0 255 339" fill="none" xmlns="http://www.w3.org/2000/svg">
<g clip-path="url(#clip0_250_4225)">
<path d="M0 273.662H27.5863V253.344H38.172V273.662H80.4058V282.217H0V273.662ZM59.7698 264.787H49.3988V238.589H20.5302V229.714H59.7698V264.787Z" fill="#231815"/>
<path d="M128.196 281.04H117.825V250.885H90.559V241.901H128.196V281.04ZM120.925 310.875H150.861V299.646H120.925V291.198H161.235V318.679H131.19V330.443H163.264V338.997H120.925V310.875ZM150.97 234.097C147.976 232.173 144.876 230.14 141.881 228.322C143.058 225.969 144.34 223.618 145.623 221.265L161.341 228.858V282.431H150.97V234.097Z" fill="#231815"/>
<path d="M174.597 273.553H209.56V264.037H195.66V229.284H234.579V238.053H205.925V255.483H235.435V264.037H220.146V273.553H255.003V282.108H174.6V273.553H174.597ZM214.799 322.529C204.963 322.529 196.195 315.899 196.195 305.956C196.195 296.013 204.963 289.274 214.799 289.274C224.634 289.274 233.402 295.904 233.402 305.956C233.402 316.008 224.743 322.529 214.799 322.529ZM214.799 314.405C219.181 314.405 223.672 311.195 223.672 305.956C223.672 300.717 219.181 297.508 214.799 297.508C210.416 297.508 205.925 300.823 205.925 305.956C205.925 311.089 210.307 314.405 214.799 314.405Z" fill="#231815"/>
<path d="M180.912 178.529H197.825V129.756C197.825 121.997 194.459 114.767 188.343 109.398C182.539 104.301 174.897 101.494 166.818 101.494H144.298C144.25 101.494 144.201 101.494 144.153 101.497V118.409C144.153 118.409 144.156 118.409 144.159 118.409H166.818C170.786 118.409 174.467 119.722 177.183 122.109C177.186 122.109 177.189 122.115 177.192 122.118C177.797 122.65 178.021 123.5 177.776 124.269C175.208 132.336 170.735 139.729 164.577 145.888C154.436 156.03 140.953 161.617 126.611 161.617C112.269 161.617 98.7856 156.03 88.6445 145.888C78.5034 135.745 72.9172 122.26 72.9172 107.916C72.9172 93.5721 78.5034 80.0871 88.6445 69.9446C91.5631 67.0256 94.76 64.4877 98.1746 62.3491L90.925 46.9766C90.8312 47.028 90.7374 47.0794 90.6437 47.1339C85.5777 50.1346 80.9049 53.7644 76.6857 57.9842C70.2042 64.4665 65.114 72.0166 61.5572 80.4289C57.8734 89.1406 56.0043 98.3877 56.0043 107.919C56.0043 117.451 57.8734 126.698 61.5572 135.409C65.114 143.819 70.2042 151.372 76.6857 157.854C83.1672 164.336 90.7163 169.427 99.1273 172.985C107.838 176.669 117.084 178.538 126.614 178.538C136.144 178.538 145.39 176.669 154.1 172.985C162.508 169.427 170.061 164.336 176.542 157.854C178.081 156.314 179.536 154.714 180.915 153.06V178.538L180.912 178.529Z" fill="#231815"/>
<path d="M159.792 81.3878C137.357 81.3878 119.104 63.1326 119.104 40.6939C119.104 18.2552 137.357 0 159.792 0C182.228 0 200.481 18.2552 200.481 40.6939C200.481 63.1326 182.228 81.3878 159.792 81.3878ZM159.792 16.9152C146.681 16.9152 136.017 27.581 136.017 40.6939C136.017 53.8068 146.681 64.4726 159.792 64.4726C172.904 64.4726 183.568 53.8068 183.568 40.6939C183.568 27.581 172.904 16.9152 159.792 16.9152Z" fill="#231815"/>
</g>
<defs>
<clipPath id="clip0_250_4225">
<rect width="255" height="339" fill="white"/>
</clipPath>
</defs>
</svg>
