<svg width="384" height="122" viewBox="0 0 384 122" fill="none" xmlns="http://www.w3.org/2000/svg">
<g clip-path="url(#clip0_250_4271)">
<path d="M129.257 52.6137H156.815V32.2115H167.39V52.6137H209.582V61.2035H129.26V52.6137H129.257ZM188.963 43.702H178.603V17.3951H149.763V8.4834H188.963V43.702Z" fill="#231815"/>
<path d="M257.323 60.025H246.963V29.7452H219.725V20.7241H257.323V60.025ZM250.06 89.9828H279.966V78.708H250.06V70.2246H290.329V97.8193H260.315V109.632H292.357V118.221H250.06V89.9828ZM280.072 12.8846C277.08 10.9528 273.984 8.91171 270.992 7.08624C272.168 4.72315 273.449 2.36309 274.73 0L290.432 7.62386V61.4192H280.072V12.8846Z" fill="#231815"/>
<path d="M303.678 52.5074H338.606V42.9518H324.719V8.05212H363.599V16.8575H334.974V34.359H364.454V42.9487H349.181V52.5044H384.003V61.0942H303.681V52.5044L303.678 52.5074ZM343.839 101.686C334.013 101.686 325.254 95.0279 325.254 85.044C325.254 75.0601 334.013 68.2928 343.839 68.2928C353.665 68.2928 362.424 74.9507 362.424 85.044C362.424 95.1373 353.774 101.686 343.839 101.686ZM343.839 93.5244C348.217 93.5244 352.704 90.3017 352.704 85.041C352.704 79.7802 348.217 76.5575 343.839 76.5575C339.461 76.5575 334.974 79.8865 334.974 85.041C334.974 90.1954 339.352 93.5244 343.839 93.5244Z" fill="#231815"/>
<path d="M82.9142 122H94.1418V89.4573C94.1418 84.2816 91.906 79.4552 87.8482 75.8741C83.9958 72.4753 78.9229 70.6012 73.5598 70.6012H58.6098C58.5765 70.6012 58.5463 70.6012 58.5131 70.6012V81.8851C58.5131 81.8851 58.5131 81.8851 58.5161 81.8851H73.5568C76.1915 81.8851 78.6358 82.7629 80.4366 84.3515C80.4366 84.3515 80.4426 84.3545 80.4426 84.3575C80.8445 84.7129 80.9925 85.2809 80.8294 85.7942C79.1253 91.1765 76.1552 96.1092 72.0672 100.219C65.3355 106.986 56.386 110.713 46.8655 110.713C37.3449 110.713 28.3954 106.986 21.6637 100.219C14.9319 93.4515 11.2246 84.4547 11.2246 74.8839C11.2246 65.3131 14.9319 56.3163 21.6637 49.549C23.6004 47.602 25.7245 45.9102 27.9906 44.4826L23.1774 34.2253C23.114 34.2588 23.0535 34.2922 22.9901 34.3286C19.6272 36.3303 16.5272 38.7541 13.7264 41.5667C9.42385 45.892 6.04589 50.931 3.68313 56.5411C1.23879 62.3547 0 68.5236 0 74.8839C0 81.2442 1.23879 87.4132 3.68615 93.2267C6.04589 98.8368 9.42687 103.876 13.7294 108.201C18.0319 112.526 23.0445 115.922 28.6251 118.297C34.4081 120.755 40.5446 122.003 46.8715 122.003C53.1984 122.003 59.3349 120.758 65.1179 118.297C70.6985 115.925 75.7111 112.526 80.0136 108.201C81.0348 107.174 82.0017 106.105 82.9172 105.003V122.003L82.9142 122Z" fill="#231815"/>
<path d="M68.8947 57.185C54.0021 57.185 41.8861 45.005 41.8861 30.0337C41.8861 15.0624 54.0021 2.88245 68.8947 2.88245C83.7874 2.88245 95.9033 15.0624 95.9033 30.0337C95.9033 45.005 83.7874 57.185 68.8947 57.185ZM68.8947 14.1664C60.193 14.1664 53.1138 21.283 53.1138 30.0307C53.1138 38.7784 60.193 45.895 68.8947 45.895C77.5965 45.895 84.6757 38.7784 84.6757 30.0307C84.6757 21.283 77.5965 14.1664 68.8947 14.1664Z" fill="#231815"/>
</g>
<defs>
<clipPath id="clip0_250_4271">
<rect width="384" height="122" fill="white"/>
</clipPath>
</defs>
</svg>
