<svg width="28" height="28" viewBox="0 0 28 28" fill="none" xmlns="http://www.w3.org/2000/svg">
<path d="M9.59876 10.8837L10.1281 12.7118C9.43739 12.9034 8.80553 13.258 8.28818 13.7442C7.77084 14.2304 7.38391 14.8334 7.16145 15.5001C6.939 16.1667 6.88787 16.8766 7.01255 17.5671C7.13724 18.2575 7.43392 18.9075 7.87645 19.4597C8.31899 20.0118 8.8938 20.4492 9.55026 20.7334C10.2067 21.0175 10.9247 21.1397 11.6409 21.0891C12.357 21.0385 13.0495 20.8167 13.6572 20.4433C14.265 20.0698 14.7693 19.5562 15.1258 18.9476L15.2251 18.7699L16.9572 19.6345C16.4841 20.5384 15.7901 21.3145 14.9367 21.8941C14.0832 22.4738 13.0966 22.8391 12.0641 22.9577C11.0317 23.0763 9.98517 22.9446 9.01724 22.5742C8.04931 22.2039 7.1898 21.6062 6.51476 20.8343C5.83973 20.0623 5.36998 19.1397 5.14709 18.1482C4.92419 17.1567 4.95503 16.1269 5.23686 15.1498C5.5187 14.1728 6.04284 13.2786 6.76292 12.5464C7.48299 11.8142 8.37679 11.2667 9.36523 10.9522L9.59876 10.8837ZM12.7827 4C13.4256 3.99967 14.0506 4.20657 14.5608 4.5886C15.0709 4.97063 15.4377 5.50641 15.604 6.11278C15.7704 6.71915 15.7271 7.36219 15.4809 7.94208C15.2347 8.52197 14.7993 9.00628 14.2423 9.31982V10.574L15.9384 11.126H17.6481C18.0352 11.126 18.4064 11.2762 18.6802 11.5435C18.9539 11.8107 19.1077 12.1732 19.1077 12.5512C19.1077 12.9292 18.9539 13.2917 18.6802 13.559C18.4064 13.8263 18.0352 13.9764 17.6481 13.9764H15.7019C15.5443 13.9764 15.3905 13.9521 15.2407 13.9033L14.2423 13.5783V14.4515C14.2423 14.5775 14.2936 14.6983 14.3848 14.7874C14.476 14.8765 14.5998 14.9266 14.7288 14.9266H16.675C17.2037 14.9266 17.7252 15.0468 18.1981 15.2777C18.671 15.5085 19.0824 15.8438 19.3996 16.2568L21.2971 18.7271H21.5404C21.9275 18.7271 22.2988 18.8773 22.5725 19.1446C22.8462 19.4118 23 19.7743 23 20.1523C23 20.5303 22.8462 20.8928 22.5725 21.1601C22.2988 21.4274 21.9275 21.5775 21.5404 21.5775H20.5673C20.3407 21.5775 20.1172 21.526 19.9145 21.4271C19.7119 21.3281 19.5356 21.1845 19.3996 21.0075L17.0642 17.967C17.0189 17.908 16.9601 17.8601 16.8926 17.8271C16.825 17.7942 16.7505 17.777 16.675 17.777H14.7288C13.8256 17.777 12.9593 17.4266 12.3206 16.803C11.6819 16.1793 11.3231 15.3335 11.3231 14.4515V9.31982C10.7661 9.00628 10.3307 8.52197 10.0845 7.94208C9.83824 7.36219 9.79495 6.71915 9.96132 6.11278C10.1277 5.50641 10.4944 4.97063 11.0046 4.5886C11.5147 4.20657 12.1398 3.99967 12.7827 4Z" fill="#282828"/>
</svg>
