<svg width="60" height="62" viewBox="0 0 60 62" fill="none" xmlns="http://www.w3.org/2000/svg">
<g filter="url(#filter0_d_1029_1672)">
<g filter="url(#filter1_d_1029_1672)">
<circle cx="30" cy="30" r="24" fill="white"/>
</g>
<circle cx="30" cy="30" r="21" fill="#AAEB2F"/>
<path fill-rule="evenodd" clip-rule="evenodd" d="M28.7819 18.418C29.1018 18.1677 29.494 18.0222 29.9031 18.0023C30.3121 17.9825 30.7172 18.0892 31.0608 18.3073L31.2181 18.418L36.8237 22.8084C37.0972 23.0224 37.3237 23.2882 37.4897 23.59C37.6557 23.8918 37.7577 24.2232 37.7896 24.5645L37.8 24.7949V28.0018H40.4C41.0559 28.0015 41.6877 28.2441 42.1687 28.6807C42.6497 29.1173 42.9443 29.7157 42.9935 30.356L43 30.5469V40.6002C43.0002 40.9451 42.8702 41.278 42.6351 41.5349C42.4 41.7918 42.0763 41.9547 41.726 41.9924L41.57 42H18.43C18.0776 42.0002 17.7376 41.873 17.4751 41.6428C17.2127 41.4127 17.0462 41.0958 17.0078 40.7529L17 40.6002V30.5469C16.9998 29.9048 17.2475 29.2863 17.6935 28.8155C18.1396 28.3447 18.7509 28.0563 19.405 28.0081L19.6 28.0018H22.2V24.7949C22.2 24.4522 22.2707 24.113 22.4078 23.7976C22.545 23.4823 22.7458 23.1973 22.9982 22.9598L23.1763 22.8071L28.7819 18.418ZM30 20.7227L24.8 24.7949V39.4549H35.2V24.7949L30 20.7227ZM40.4 30.5469H37.8V39.4549H40.4V30.5469ZM22.2 30.5469H19.6V39.4549H22.2V30.5469ZM30 25.4566C30.5122 25.4566 31.0193 25.5554 31.4925 25.7472C31.9656 25.9391 32.3956 26.2203 32.7577 26.5748C33.1199 26.9293 33.4071 27.3502 33.6031 27.8133C33.7991 28.2765 33.9 28.773 33.9 29.2743C33.9 29.7757 33.7991 30.2721 33.6031 30.7353C33.4071 31.1985 33.1199 31.6193 32.7577 31.9738C32.3956 32.3284 31.9656 32.6096 31.4925 32.8014C31.0193 32.9933 30.5122 33.092 30 33.092C28.9657 33.092 27.9737 32.6898 27.2423 31.9738C26.5109 31.2579 26.1 30.2868 26.1 29.2743C26.1 28.2618 26.5109 27.2908 27.2423 26.5748C27.9737 25.8588 28.9657 25.4566 30 25.4566ZM30 28.0018C29.6552 28.0018 29.3246 28.1358 29.0808 28.3745C28.837 28.6131 28.7 28.9368 28.7 29.2743C28.7 29.6118 28.837 29.9355 29.0808 30.1742C29.3246 30.4128 29.6552 30.5469 30 30.5469C30.3448 30.5469 30.6754 30.4128 30.9192 30.1742C31.163 29.9355 31.3 29.6118 31.3 29.2743C31.3 28.9368 31.163 28.6131 30.9192 28.3745C30.6754 28.1358 30.3448 28.0018 30 28.0018Z" fill="white"/>
</g>
<defs>
<filter id="filter0_d_1029_1672" x="0" y="0" width="60" height="60" filterUnits="userSpaceOnUse" color-interpolation-filters="sRGB">
<feFlood flood-opacity="0" result="BackgroundImageFix"/>
<feColorMatrix in="SourceAlpha" type="matrix" values="0 0 0 0 0 0 0 0 0 0 0 0 0 0 0 0 0 0 127 0" result="hardAlpha"/>
<feOffset/>
<feGaussianBlur stdDeviation="3"/>
<feComposite in2="hardAlpha" operator="out"/>
<feColorMatrix type="matrix" values="0 0 0 0 0 0 0 0 0 0 0 0 0 0 0 0 0 0 0.25 0"/>
<feBlend mode="normal" in2="BackgroundImageFix" result="effect1_dropShadow_1029_1672"/>
<feBlend mode="normal" in="SourceGraphic" in2="effect1_dropShadow_1029_1672" result="shape"/>
</filter>
<filter id="filter1_d_1029_1672" x="2" y="6" width="56" height="56" filterUnits="userSpaceOnUse" color-interpolation-filters="sRGB">
<feFlood flood-opacity="0" result="BackgroundImageFix"/>
<feColorMatrix in="SourceAlpha" type="matrix" values="0 0 0 0 0 0 0 0 0 0 0 0 0 0 0 0 0 0 127 0" result="hardAlpha"/>
<feOffset dy="4"/>
<feGaussianBlur stdDeviation="2"/>
<feComposite in2="hardAlpha" operator="out"/>
<feColorMatrix type="matrix" values="0 0 0 0 0 0 0 0 0 0 0 0 0 0 0 0 0 0 0.25 0"/>
<feBlend mode="normal" in2="BackgroundImageFix" result="effect1_dropShadow_1029_1672"/>
<feBlend mode="normal" in="SourceGraphic" in2="effect1_dropShadow_1029_1672" result="shape"/>
</filter>
</defs>
</svg>
