<svg width="40" height="40" viewBox="0 0 40 40" fill="none" xmlns="http://www.w3.org/2000/svg">
<path fill-rule="evenodd" clip-rule="evenodd" d="M16.2281 15.2005C16.0933 15.0704 15.9129 14.9984 15.7256 15C15.5384 15.0017 15.3592 15.0768 15.2268 15.2092C15.0943 15.3416 15.0192 15.5208 15.0176 15.7081C15.016 15.8954 15.088 16.0758 15.2181 16.2105L18.9988 19.9912L15.2181 23.7719C15.1498 23.8378 15.0954 23.9166 15.058 24.0038C15.0206 24.0909 15.0009 24.1847 15 24.2795C14.9992 24.3743 15.0173 24.4684 15.0532 24.5562C15.0891 24.644 15.1421 24.7237 15.2092 24.7908C15.2763 24.8579 15.356 24.9109 15.4438 24.9468C15.5316 24.9827 15.6257 25.0008 15.7205 25C15.8153 24.9991 15.9091 24.9794 15.9962 24.942C16.0834 24.9046 16.1622 24.8502 16.2281 24.7819L20.0088 21.0012L23.7895 24.7819C23.9242 24.912 24.1046 24.984 24.2919 24.9824C24.4792 24.9808 24.6584 24.9057 24.7908 24.7732C24.9232 24.6408 24.9983 24.4616 25 24.2744C25.0016 24.0871 24.9296 23.9067 24.7995 23.7719L21.0188 19.9912L24.7995 16.2105C24.9296 16.0758 25.0016 15.8954 25 15.7081C24.9983 15.5208 24.9232 15.3416 24.7908 15.2092C24.6584 15.0768 24.4792 15.0017 24.2919 15C24.1046 14.9984 23.9242 15.0704 23.7895 15.2005L20.0088 18.9812L16.2281 15.2005Z" fill="#7E7E7E"/>
</svg>
