<svg width="44" height="44" viewBox="0 0 44 44" fill="none" xmlns="http://www.w3.org/2000/svg">
<path d="M21.3135 14.5C25.1321 14.5001 28.1267 17.462 28.127 20.9932C28.127 24.5245 25.1323 27.4872 21.3135 27.4873C17.4946 27.4873 14.5 24.5246 14.5 20.9932C14.5002 17.4619 17.4947 14.5 21.3135 14.5Z" stroke="#282828" stroke-width="3"/>
<path d="M29.0901 31.4243C29.6137 32.0663 30.5586 32.1623 31.2006 31.6387C31.8425 31.1151 31.9385 30.1702 31.4149 29.5282L30.2525 30.4763L29.0901 31.4243ZM25.9561 25.2084L24.7936 26.1564L29.0901 31.4243L30.2525 30.4763L31.4149 29.5282L27.1185 24.2603L25.9561 25.2084Z" fill="#282828"/>
</svg>
