<svg width="40" height="40" viewBox="0 0 40 40" fill="none" xmlns="http://www.w3.org/2000/svg">
<path fill-rule="evenodd" clip-rule="evenodd" d="M19.2192 11.9404C19.4243 11.7764 19.6757 11.6812 19.938 11.6682C20.2002 11.6551 20.4598 11.725 20.6801 11.8679L20.7809 11.9404L24.3742 14.8154C24.5496 14.9555 24.6948 15.1296 24.8012 15.3272C24.9076 15.5248 24.973 15.7419 24.9934 15.9654L25.0001 16.1162V18.2162H26.6667C27.0872 18.2161 27.4922 18.3749 27.8005 18.6608C28.1089 18.9467 28.2977 19.3386 28.3292 19.7579L28.3334 19.8829V26.4662C28.3335 26.6921 28.2502 26.9101 28.0995 27.0783C27.9488 27.2466 27.7413 27.3532 27.5167 27.3779L27.4167 27.3829H12.5834C12.3575 27.383 12.1396 27.2997 11.9713 27.149C11.8031 26.9983 11.6964 26.7907 11.6717 26.5662L11.6667 26.4662V19.8829C11.6666 19.4624 11.8254 19.0574 12.1113 18.7491C12.3972 18.4408 12.7891 18.2519 13.2084 18.2204L13.3334 18.2162H15.0001V16.1162C15.0001 15.8918 15.0454 15.6697 15.1333 15.4632C15.2212 15.2567 15.3499 15.0701 15.5117 14.9145L15.6259 14.8145L19.2192 11.9404ZM20.0001 13.4495L16.6667 16.1162V25.7162H23.3334V16.1162L20.0001 13.4495ZM26.6667 19.8829H25.0001V25.7162H26.6667V19.8829ZM15.0001 19.8829H13.3334V25.7162H15.0001V19.8829ZM20.0001 16.5495C20.3284 16.5495 20.6535 16.6142 20.9568 16.7398C21.2601 16.8655 21.5357 17.0496 21.7678 17.2818C22 17.5139 22.1841 17.7895 22.3098 18.0928C22.4354 18.3962 22.5001 18.7212 22.5001 19.0495C22.5001 19.3779 22.4354 19.7029 22.3098 20.0063C22.1841 20.3096 22 20.5852 21.7678 20.8173C21.5357 21.0495 21.2601 21.2336 20.9568 21.3592C20.6535 21.4849 20.3284 21.5495 20.0001 21.5495C19.337 21.5495 18.7012 21.2862 18.2323 20.8173C17.7635 20.3485 17.5001 19.7126 17.5001 19.0495C17.5001 18.3865 17.7635 17.7506 18.2323 17.2818C18.7012 16.8129 19.337 16.5495 20.0001 16.5495ZM20.0001 18.2162C19.7791 18.2162 19.5671 18.304 19.4108 18.4603C19.2545 18.6166 19.1667 18.8285 19.1667 19.0495C19.1667 19.2706 19.2545 19.4825 19.4108 19.6388C19.5671 19.7951 19.7791 19.8829 20.0001 19.8829C20.2211 19.8829 20.4331 19.7951 20.5893 19.6388C20.7456 19.4825 20.8334 19.2706 20.8334 19.0495C20.8334 18.8285 20.7456 18.6166 20.5893 18.4603C20.4331 18.304 20.2211 18.2162 20.0001 18.2162Z" fill="#282828"/>
</svg>
