<svg width="60" height="60" viewBox="0 0 60 60" fill="none" xmlns="http://www.w3.org/2000/svg">
<g filter="url(#filter0_d_1334_1742)">
<rect x="6" y="2" width="48" height="48" rx="24" fill="#AAEB2F"/>
<rect x="7.5" y="3.5" width="45" height="45" rx="22.5" stroke="white" stroke-width="3"/>
<path fill-rule="evenodd" clip-rule="evenodd" d="M28.7819 14.418C29.1018 14.1677 29.494 14.0222 29.9031 14.0023C30.3121 13.9825 30.7172 14.0892 31.0608 14.3073L31.2181 14.418L36.8237 18.8084C37.0972 19.0224 37.3237 19.2882 37.4897 19.59C37.6557 19.8918 37.7577 20.2232 37.7896 20.5645L37.8 20.7949V24.0018H40.4C41.0559 24.0015 41.6877 24.2441 42.1687 24.6807C42.6497 25.1173 42.9443 25.7157 42.9935 26.356L43 26.5469V36.6002C43.0002 36.9451 42.8702 37.278 42.6351 37.5349C42.4 37.7918 42.0763 37.9547 41.726 37.9924L41.57 38H18.43C18.0776 38.0002 17.7376 37.873 17.4751 37.6428C17.2127 37.4127 17.0462 37.0958 17.0078 36.7529L17 36.6002V26.5469C16.9998 25.9048 17.2475 25.2863 17.6935 24.8155C18.1396 24.3447 18.7509 24.0563 19.405 24.0081L19.6 24.0018H22.2V20.7949C22.2 20.4522 22.2707 20.113 22.4078 19.7976C22.545 19.4823 22.7458 19.1973 22.9982 18.9598L23.1763 18.8071L28.7819 14.418ZM30 16.7227L24.8 20.7949V35.4549H35.2V20.7949L30 16.7227ZM40.4 26.5469H37.8V35.4549H40.4V26.5469ZM22.2 26.5469H19.6V35.4549H22.2V26.5469ZM30 21.4566C30.5122 21.4566 31.0193 21.5554 31.4925 21.7472C31.9656 21.9391 32.3956 22.2203 32.7577 22.5748C33.1199 22.9293 33.4071 23.3502 33.6031 23.8133C33.7991 24.2765 33.9 24.773 33.9 25.2743C33.9 25.7757 33.7991 26.2721 33.6031 26.7353C33.4071 27.1985 33.1199 27.6193 32.7577 27.9738C32.3956 28.3284 31.9656 28.6096 31.4925 28.8014C31.0193 28.9933 30.5122 29.092 30 29.092C28.9657 29.092 27.9737 28.6898 27.2423 27.9738C26.5109 27.2579 26.1 26.2868 26.1 25.2743C26.1 24.2618 26.5109 23.2908 27.2423 22.5748C27.9737 21.8588 28.9657 21.4566 30 21.4566ZM30 24.0018C29.6552 24.0018 29.3246 24.1358 29.0808 24.3745C28.837 24.6131 28.7 24.9368 28.7 25.2743C28.7 25.6118 28.837 25.9355 29.0808 26.1742C29.3246 26.4128 29.6552 26.5469 30 26.5469C30.3448 26.5469 30.6754 26.4128 30.9192 26.1742C31.163 25.9355 31.3 25.6118 31.3 25.2743C31.3 24.9368 31.163 24.6131 30.9192 24.3745C30.6754 24.1358 30.3448 24.0018 30 24.0018Z" fill="white"/>
</g>
<defs>
<filter id="filter0_d_1334_1742" x="0" y="0" width="60" height="60" filterUnits="userSpaceOnUse" color-interpolation-filters="sRGB">
<feFlood flood-opacity="0" result="BackgroundImageFix"/>
<feColorMatrix in="SourceAlpha" type="matrix" values="0 0 0 0 0 0 0 0 0 0 0 0 0 0 0 0 0 0 127 0" result="hardAlpha"/>
<feOffset dy="4"/>
<feGaussianBlur stdDeviation="3"/>
<feComposite in2="hardAlpha" operator="out"/>
<feColorMatrix type="matrix" values="0 0 0 0 0 0 0 0 0 0 0 0 0 0 0 0 0 0 0.25 0"/>
<feBlend mode="normal" in2="BackgroundImageFix" result="effect1_dropShadow_1334_1742"/>
<feBlend mode="normal" in="SourceGraphic" in2="effect1_dropShadow_1334_1742" result="shape"/>
</filter>
</defs>
</svg>
