<svg width="32" height="32" viewBox="0 0 32 32" fill="none" xmlns="http://www.w3.org/2000/svg">
<path d="M20.0498 9C22.3008 9 24 10.6847 24 12.7959C23.9999 14.1001 23.4014 15.371 22.126 16.8828C20.8405 18.4065 18.9822 20.044 16.6445 22.0977L16.6436 22.0986L16 22.666L15.3564 22.0986L15.3555 22.0977L13.6934 20.6309C12.1242 19.2325 10.8382 18.0256 9.87402 16.8828C8.59858 15.371 8.00008 14.1001 8 12.7959C8 10.6847 9.69917 9 11.9502 9C13.2254 9.00006 14.4578 9.58011 15.252 10.4766L16 11.3213L16.748 10.4766C17.5422 9.58011 18.7746 9.00006 20.0498 9Z" fill="#CCF382" stroke="#AAEB2F" stroke-width="2"/>
</svg>
