<svg width="44" height="44" viewBox="0 0 44 44" fill="none" xmlns="http://www.w3.org/2000/svg">
<path d="M28.8922 33.9988H31.1794V27.4424C31.1794 26.3994 30.7242 25.4276 29.8971 24.7059C29.1122 24.0207 28.0786 23.6434 26.9861 23.6434H23.9406C23.934 23.6434 23.9275 23.6434 23.9209 23.6438V25.9172C23.9209 25.9172 23.9213 25.9172 23.9218 25.9172H26.9861C27.5228 25.9172 28.0206 26.0936 28.3879 26.4145C28.3883 26.4145 28.3887 26.4153 28.3891 26.4157C28.4709 26.4873 28.5012 26.6015 28.468 26.7048C28.1208 27.7893 27.5158 28.783 26.6831 29.6109C25.3116 30.9743 23.4882 31.7254 21.5486 31.7254C19.609 31.7254 17.7856 30.9743 16.4142 29.6109C15.0427 28.2475 14.2872 26.4348 14.2872 24.5066C14.2872 22.5784 15.0427 20.7657 16.4142 19.4023C16.8089 19.0099 17.2412 18.6687 17.703 18.3813L16.7226 16.3148C16.7099 16.3217 16.6972 16.3286 16.6845 16.336C15.9994 16.7393 15.3675 17.2273 14.7969 17.7945C13.9204 18.6659 13.232 19.6808 12.751 20.8116C12.2528 21.9827 12 23.2258 12 24.507C12 25.7883 12.2528 27.0313 12.751 28.2024C13.232 29.3328 13.9204 30.3481 14.7969 31.2195C15.6734 32.0909 16.6943 32.7752 17.8318 33.2534C19.0098 33.7487 20.2602 34 21.549 34C22.8378 34 24.0882 33.7487 25.2662 33.2534C26.4033 32.7752 27.4246 32.0909 28.3011 31.2195C28.5093 31.0125 28.7061 30.7974 28.8926 30.575V34L28.8922 33.9988Z" fill="#282828"/>
<path d="M26.036 20.9405C23.0019 20.9405 20.5334 18.4866 20.5334 15.4703C20.5334 12.454 23.0019 10 26.036 10C29.0701 10 31.5386 12.454 31.5386 15.4703C31.5386 18.4866 29.0701 20.9405 26.036 20.9405ZM26.036 12.2738C24.2629 12.2738 22.8207 13.7076 22.8207 15.4703C22.8207 17.233 24.2629 18.6667 26.036 18.6667C27.8091 18.6667 29.2513 17.233 29.2513 15.4703C29.2513 13.7076 27.8091 12.2738 26.036 12.2738Z" fill="#282828"/>
</svg>
