<svg width="120" height="229" viewBox="0 0 120 229" fill="none" xmlns="http://www.w3.org/2000/svg">
<g clip-path="url(#clip0_851_7324)">
<path d="M68.6437 164.345H49.0705C42.3734 164.345 37.2191 159.223 38.1362 153.477L42.7514 124.575C43.4926 119.934 48.0719 116.48 53.482 116.48H64.053C69.5657 116.48 74.233 120 74.9872 124.728L79.5779 153.477C80.4951 159.221 75.3407 164.345 68.6437 164.345Z" fill="white"/>
<path d="M51.8142 223.505L37.0239 222.659C31.9624 222.369 28.4762 215.098 29.628 207.233L35.4226 167.664C36.3528 161.312 40.0898 156.755 44.1771 156.99L52.1644 157.448C56.33 157.686 59.5751 162.732 59.7689 169.271L60.9435 209.026C61.178 216.97 56.8741 223.795 51.8126 223.505H51.8142Z" fill="white"/>
<path d="M66.6478 223.462L80.9591 222.643C85.8561 222.363 89.2168 215.098 88.0879 207.233L82.4057 167.658C81.4935 161.305 77.8688 156.742 73.9134 156.969L66.1835 157.411C62.1532 157.642 59.0205 162.682 58.8462 169.219L57.7841 208.967C57.5723 216.91 61.7492 223.743 66.6478 223.463V223.462Z" fill="#DBDBDB"/>
<path d="M98.0782 172.436L106.342 167.774C109.17 166.179 108.164 159.383 104.207 153.359L84.2963 123.046C81.1001 118.179 77.0193 115.515 74.7353 116.803L70.2717 119.321C67.9438 120.633 68.1621 125.573 70.78 130.891L86.7073 163.231C89.8905 169.693 95.2501 174.033 98.0782 172.437V172.436Z" fill="white"/>
<path d="M20.8192 172.436L12.555 167.774C9.72695 166.179 10.7337 159.383 14.6907 153.359L34.6011 123.046C37.7973 118.179 41.8781 115.515 44.1621 116.803L48.6257 119.321C50.9536 120.633 50.7353 125.573 48.1174 130.891L32.1901 163.231C29.0069 169.693 23.6473 174.033 20.8192 172.437V172.436Z" fill="white"/>
<path d="M17.758 180.406C26.6884 180.406 33.928 173.215 33.928 164.345C33.928 155.476 26.6884 148.285 17.758 148.285C8.82748 148.285 1.58789 155.476 1.58789 164.345C1.58789 173.215 8.82748 180.406 17.758 180.406Z" fill="#FBE6C4"/>
<path d="M17.758 181.552C8.2052 181.552 0.43457 173.832 0.43457 164.346C0.43457 154.859 8.20683 147.14 17.758 147.14C27.3092 147.14 35.0815 154.859 35.0815 164.346C35.0815 173.832 27.3092 181.552 17.758 181.552ZM17.758 149.432C9.47913 149.432 2.74295 156.123 2.74295 164.346C2.74295 172.568 9.47913 179.259 17.758 179.259C26.0369 179.259 32.7731 172.568 32.7731 164.346C32.7731 156.123 26.0369 149.432 17.758 149.432Z" fill="#412911"/>
<path d="M99.9738 180.406C108.904 180.406 116.144 173.215 116.144 164.345C116.144 155.476 108.904 148.285 99.9738 148.285C91.0433 148.285 83.8037 155.476 83.8037 164.345C83.8037 173.215 91.0433 180.406 99.9738 180.406Z" fill="#FBE6C4"/>
<path d="M99.9738 181.552C90.421 181.552 82.6504 173.832 82.6504 164.346C82.6504 154.859 90.4226 147.14 99.9738 147.14C109.525 147.14 117.297 154.859 117.297 164.346C117.297 173.832 109.525 181.552 99.9738 181.552ZM99.9738 149.432C91.6949 149.432 84.9588 156.123 84.9588 164.346C84.9588 172.568 91.6949 179.259 99.9738 179.259C108.253 179.259 114.989 172.568 114.989 164.346C114.989 156.123 108.253 149.432 99.9738 149.432Z" fill="#412911"/>
<path d="M70.2938 199.055H47.4217C39.5941 199.055 33.5715 189.614 34.6434 179.027L40.0372 125.762C40.9022 117.211 46.2553 110.844 52.5777 110.844H64.9293C71.3706 110.844 76.8247 117.332 77.7076 126.047L83.0722 179.029C84.1441 189.616 78.1214 199.057 70.2938 199.057V199.055Z" fill="#264299"/>
<path d="M52.9934 227.854H32.0762C26.6596 227.854 22.828 223.966 24.519 220.187L28.5933 211.09C29.517 209.027 32.1381 207.634 35.0949 207.634H49.17C52.6057 207.634 55.6536 209.254 56.7272 211.652L60.549 220.187C62.2416 223.965 58.4084 227.854 52.9917 227.854H52.9934Z" fill="#BA8842"/>
<path d="M84.4572 227.854H63.5401C58.1234 227.854 54.2919 223.966 55.9829 220.187L60.0571 211.09C60.9808 209.027 63.602 207.634 66.5587 207.634H80.6338C84.0695 207.634 87.1175 209.254 88.191 211.652L92.0128 220.187C93.7054 223.965 89.8722 227.854 84.4556 227.854H84.4572Z" fill="#BA8842"/>
<path d="M84.4489 229H63.5318C61.629 229 59.7849 228.55 58.2585 227.722C56.732 228.55 54.888 229 52.9852 229H32.068C28.5933 229 25.472 227.528 23.9211 225.156C22.8117 223.46 22.6472 221.53 23.4568 219.721L27.5295 210.624C27.7168 210.205 27.9628 209.804 28.2609 209.427C28.2902 208.639 28.3636 207.848 28.4776 207.066L33.7786 170.874C31.1835 177.133 24.9767 181.55 17.7502 181.55C8.19739 181.55 0.426758 173.83 0.426758 164.344C0.426758 154.857 8.00353 147.334 17.3886 147.141L33.6271 122.418C36.4095 118.182 39.8452 115.501 42.6048 115.341C45.1983 111.744 48.7985 109.695 52.5682 109.695H64.9213C68.7708 109.695 72.4232 111.778 75.0623 115.446C77.949 114.731 81.9809 117.433 85.2553 122.418L101.538 147.209C110.418 148.002 117.289 155.417 117.289 164.346C117.289 173.834 109.517 181.552 99.9657 181.552C92.7164 181.552 86.4918 177.105 83.9113 170.813L89.2204 207.066C89.4404 208.568 89.5039 210.082 89.411 211.572L93.0585 219.719C93.8682 221.528 93.7036 223.458 92.5942 225.154C91.0434 227.526 87.9221 228.998 84.4473 228.998L84.4489 229ZM58.2585 225.013L58.8922 225.427C60.1547 226.253 61.8033 226.707 63.5318 226.707H84.4489C87.1092 226.707 89.5463 225.609 90.6589 223.906C91.133 223.183 91.5679 222.031 90.9505 220.653L87.0668 211.982L87.088 211.694C87.1955 210.276 87.145 208.831 86.9349 207.398L81.1403 167.829C81.0002 166.876 80.7884 165.944 80.5115 165.056L80.4773 164.946L78.3155 143.598L85.92 159.038L85.7636 159.488C85.2227 161.048 84.949 162.682 84.949 164.346C84.949 172.568 91.6852 179.259 99.9641 179.259C108.243 179.259 114.979 172.568 114.979 164.346C114.979 156.123 108.759 149.898 100.818 149.457L100.235 149.424L83.32 123.672C81.8587 121.447 80.158 119.636 78.5305 118.575C77.1735 117.688 75.9957 117.407 75.2952 117.8L74.2428 118.394L73.6531 117.475C71.418 113.99 68.2332 111.991 64.9197 111.991H52.5665C49.4045 111.991 46.3419 113.867 44.1638 117.135L43.7729 117.722L43.0675 117.641C41.427 117.45 38.3236 119.463 35.5591 123.673L18.6315 149.447L17.9408 149.435C17.8773 149.435 17.8137 149.434 17.7502 149.434C9.47131 149.434 2.73514 156.124 2.73514 164.347C2.73514 172.57 9.47131 179.26 17.7502 179.26C26.0291 179.26 32.7653 172.57 32.7653 164.347C32.7653 163.174 32.6268 162.004 32.3548 160.868L32.2586 160.469L39.0779 146.623L37.2224 164.947L37.1882 165.057C36.9096 165.946 36.6995 166.878 36.5594 167.831L30.7648 207.399C30.6442 208.221 30.5758 209.056 30.5595 209.883L30.5514 210.313L30.2598 210.632C29.9942 210.922 29.7857 211.234 29.6407 211.558L25.5681 220.654C24.9507 222.033 25.3856 223.185 25.8597 223.908C26.9723 225.609 29.4094 226.709 32.0697 226.709H52.9868C54.7153 226.709 56.3639 226.254 57.6264 225.429L58.2601 225.015L58.2585 225.013ZM81.9027 156.099L82.6586 163.566C82.7254 162.079 82.9844 160.614 83.4308 159.2L81.9027 156.099ZM34.6925 160.742C34.8831 161.634 35.0036 162.543 35.0509 163.457L35.4891 159.123L34.6908 160.742H34.6925Z" fill="#412911"/>
<path d="M59.9999 83.1063C82.829 83.1063 101.336 64.7251 101.336 42.0507C101.336 19.3763 82.829 0.995056 59.9999 0.995056C37.1707 0.995056 18.6641 19.3763 18.6641 42.0507C18.6641 64.7251 37.1707 83.1063 59.9999 83.1063Z" fill="#D8A04C"/>
<path d="M60.0003 117.92C92.4995 117.92 118.845 96.0374 118.845 69.0442C118.845 42.051 92.4995 20.1686 60.0003 20.1686C27.5011 20.1686 1.15527 42.051 1.15527 69.0442C1.15527 96.0374 27.5011 117.92 60.0003 117.92Z" fill="#BA8842"/>
<path d="M60 119.217C44.0107 119.217 28.9712 114.038 17.6493 104.636C12.1235 100.047 7.78366 94.6979 4.74872 88.7387C1.59811 82.5498 0 75.9741 0 69.1946C0 62.4151 1.71052 55.38 5.0843 49.0082C8.27401 42.9843 12.7914 37.6173 18.5143 33.0513C20.5571 23.8836 25.7131 15.5556 33.0651 9.5625C40.6304 3.39622 50.1963 0 60 0C69.8037 0 79.3696 3.39622 86.9349 9.5625C94.2869 15.5556 99.4445 23.8852 101.486 33.0513C107.21 37.6173 111.728 42.9843 114.916 49.0082C118.289 55.38 120 62.1724 120 69.1946C120 76.2168 118.402 82.5498 115.251 88.7371C112.216 94.6962 107.877 100.045 102.351 104.634C91.0288 114.038 75.9876 119.216 60 119.216V119.217ZM60 2.29273C50.729 2.29273 41.6844 5.50451 34.5312 11.3342C27.4741 17.0863 22.5576 25.1101 20.6858 33.9283L20.5995 34.3344L20.2721 34.5917C14.6485 39.0137 10.2256 44.2221 7.12715 50.0745C3.9293 56.1146 2.30838 62.5462 2.30838 69.1946C2.30838 81.9042 8.28215 93.8662 19.1301 102.875C30.0367 111.935 44.5516 116.923 60 116.923C75.4484 116.923 89.9617 111.935 100.87 102.875C111.718 93.8662 117.692 81.9042 117.692 69.1946C117.692 62.5478 116.071 56.1146 112.873 50.0745C109.774 44.2221 105.351 39.0137 99.7279 34.5917L99.4005 34.3344L99.3142 33.9283C97.4424 25.1101 92.5259 17.0847 85.4688 11.3342C78.3156 5.50451 69.271 2.29273 60 2.29273Z" fill="#412911"/>
<path d="M60.0003 117.921C82.0773 117.921 99.9742 100.146 99.9742 78.2183C99.9742 56.2909 82.0773 38.5153 60.0003 38.5153C37.9233 38.5153 20.0264 56.2909 20.0264 78.2183C20.0264 100.146 37.9233 117.921 60.0003 117.921Z" fill="#FEE9C6"/>
<path d="M18.811 85.6143C25.3168 85.6143 30.5908 80.3761 30.5908 73.9144C30.5908 67.4527 25.3168 62.2145 18.811 62.2145C12.3052 62.2145 7.03125 67.4527 7.03125 73.9144C7.03125 80.3761 12.3052 85.6143 18.811 85.6143Z" fill="#FEE9C6"/>
<path d="M101.189 85.6143C107.695 85.6143 112.969 80.3761 112.969 73.9144C112.969 67.4527 107.695 62.2145 101.189 62.2145C94.6832 62.2145 89.4092 67.4527 89.4092 73.9144C89.4092 80.3761 94.6832 85.6143 101.189 85.6143Z" fill="#FEE9C6"/>
<path d="M58.8581 89.8924C60.0925 89.8924 61.0932 88.8985 61.0932 87.6724C61.0932 86.4464 60.0925 85.4525 58.8581 85.4525C57.6237 85.4525 56.623 86.4464 56.623 87.6724C56.623 88.8985 57.6237 89.8924 58.8581 89.8924Z" fill="#F5AB75"/>
<path d="M38.0306 101.374C44.2548 101.374 49.3005 96.3624 49.3005 90.1804C49.3005 83.9984 44.2548 78.9869 38.0306 78.9869C31.8064 78.9869 26.7607 83.9984 26.7607 90.1804C26.7607 96.3624 31.8064 101.374 38.0306 101.374Z" fill="#F5AB75"/>
<path d="M79.6839 101.374C85.9081 101.374 90.9538 96.3624 90.9538 90.1804C90.9538 83.9984 85.9081 78.9869 79.6839 78.9869C73.4598 78.9869 68.4141 83.9984 68.4141 90.1804C68.4141 96.3624 73.4598 101.374 79.6839 101.374Z" fill="#F5AB75"/>
<path d="M96.5893 62.2145C90.3923 48.2591 76.3449 38.517 60.0022 38.517C43.6594 38.517 29.6104 48.2591 23.415 62.2145H96.5909H96.5893Z" fill="white"/>
<path d="M98.36 63.36H21.6426L22.3577 61.7501C28.9343 46.9388 43.7099 37.3682 60.0021 37.3682C76.2944 37.3682 91.07 46.9388 97.6465 61.7501L98.3616 63.36H98.36ZM25.2281 61.0673H94.7728C88.237 48.0066 74.7793 39.6625 60.0005 39.6625C45.2216 39.6625 31.7639 48.0083 25.2281 61.0673Z" fill="#412911"/>
<path d="M73.7196 89.894C69.7936 89.894 66.5811 86.7033 66.5811 82.8038V71.1056C66.5811 69.5167 67.8892 68.2174 69.4889 68.2174L77.9519 67.7352C79.5517 67.7352 80.8598 69.0345 80.8598 70.6234V82.8022C80.8598 86.7017 77.6473 89.8924 73.7212 89.8924L73.7196 89.894Z" fill="#272828"/>
<path d="M89.5465 63.2339L67.6193 67.0735C66.7217 67.2304 65.8501 66.5881 65.6823 65.6464L65.6514 64.517C65.6514 63.5656 66.4708 62.7016 66.9807 62.5187L88.1015 55.6227C88.9991 55.4658 89.8706 56.1081 90.0384 57.0498L90.8025 61.3505C90.9605 62.2388 90.3968 63.0867 89.5497 63.2355L89.5465 63.2339Z" fill="#272828"/>
<path d="M69.124 72.1572C68.1645 72.1572 67.3532 71.421 67.2832 70.455C67.2099 69.4438 67.9739 68.5652 68.9921 68.4924L86.2764 67.2498C87.2962 67.1786 88.1792 67.9358 88.2525 68.9471C88.3258 69.9583 87.5618 70.8369 86.5436 70.9097L69.2592 72.1524C69.2136 72.1556 69.168 72.1572 69.124 72.1572Z" fill="#262727"/>
<path d="M73.7204 76.3624C74.9278 76.3624 75.9066 75.3903 75.9066 74.191C75.9066 72.9918 74.9278 72.0197 73.7204 72.0197C72.513 72.0197 71.5342 72.9918 71.5342 74.191C71.5342 75.3903 72.513 76.3624 73.7204 76.3624Z" fill="white"/>
<path d="M43.9947 90.1804C47.9207 90.1804 51.1332 86.9897 51.1332 83.0902V71.3919C51.1332 69.803 49.8251 68.5038 48.2253 68.5038L39.7624 68.0216C38.1626 68.0216 36.8545 69.3209 36.8545 70.9098V83.0886C36.8545 86.988 40.067 90.1788 43.993 90.1788L43.9947 90.1804Z" fill="#272828"/>
<path d="M28.1693 63.5203L50.0965 67.3598C50.9941 67.5168 51.8656 66.8744 52.0334 65.9327L52.0644 64.8034C52.0644 63.852 51.2449 62.9879 50.7351 62.8051L29.6143 55.9091C28.7166 55.7522 27.8451 56.3945 27.6773 57.3362L26.9133 61.6369C26.7553 62.5252 27.3189 63.373 28.166 63.5219L28.1693 63.5203Z" fill="#272828"/>
<path d="M48.5903 72.4452C48.5447 72.4452 48.5007 72.4436 48.4551 72.4404L31.1708 71.1978C30.1526 71.1249 29.3886 70.2464 29.4619 69.2351C29.5352 68.2238 30.4182 67.465 31.4379 67.5378L48.7223 68.7804C49.7405 68.8532 50.5045 69.7318 50.4312 70.7431C50.3611 71.709 49.5499 72.4452 48.5903 72.4452Z" fill="#262727"/>
<path d="M43.9948 76.6488C45.2022 76.6488 46.181 75.6766 46.181 74.4774C46.181 73.2782 45.2022 72.306 43.9948 72.306C42.7874 72.306 41.8086 73.2782 41.8086 74.4774C41.8086 75.6766 42.7874 76.6488 43.9948 76.6488Z" fill="white"/>
<path d="M59.8831 96.3304H57.7979C55.9392 96.3304 54.4258 94.8273 54.4258 92.9811V92.9455C54.4258 92.3129 54.9422 91.7983 55.5808 91.7983C56.2194 91.7983 56.7358 92.3113 56.7358 92.9455V92.9811C56.7358 93.5636 57.2131 94.0377 57.7996 94.0377H59.8848C60.4908 94.0377 60.9828 93.549 60.9828 92.9471C60.9828 92.3145 61.4992 91.8 62.1378 91.8C62.7764 91.8 63.2928 92.3129 63.2928 92.9471C63.2928 94.8127 61.7647 96.3304 59.8864 96.3304H59.8831Z" fill="#AC4B23"/>
<path d="M58.858 119.067C39.3793 119.067 22.6309 105.529 18.6251 86.7259C18.3058 86.7502 17.9848 86.7615 17.6672 86.7615C10.5351 86.7615 4.73242 80.9981 4.73242 73.9144C4.73242 66.8307 10.5351 61.0673 17.6672 61.0673C18.9004 61.0673 20.1124 61.2388 21.287 61.5802C24.405 54.6389 29.3883 48.7218 35.7514 44.4211C42.5788 39.8082 50.5677 37.3698 58.8564 37.3698C67.1451 37.3698 75.134 39.8082 81.9614 44.4211C88.3245 48.7218 93.3078 54.6389 96.4258 61.5802C97.6004 61.2388 98.8124 61.0673 100.046 61.0673C107.178 61.0673 112.98 66.8307 112.98 73.9144C112.98 80.9981 107.178 86.7615 100.046 86.7615C99.728 86.7615 99.4087 86.7502 99.0877 86.7259C95.0835 105.531 78.3335 119.067 58.8564 119.067H58.858ZM20.4822 84.1532L20.6875 85.2551C24.0792 103.518 40.132 116.773 58.8597 116.773C77.5874 116.773 93.6401 103.518 97.0319 85.2551L97.2371 84.1532L98.3514 84.3312C98.9167 84.4218 99.4885 84.4671 100.05 84.4671C105.909 84.4671 110.675 79.7328 110.675 73.9128C110.675 68.0928 105.909 63.3584 100.05 63.3584C98.731 63.3584 97.4391 63.5979 96.2092 64.072L95.1584 64.4765L94.7267 63.4426C91.8188 56.4883 86.9577 50.5648 80.6679 46.3142C74.2266 41.9601 66.6857 39.6593 58.8613 39.6593C51.0369 39.6593 43.4976 41.9601 37.0547 46.3142C30.7648 50.5648 25.9037 56.4883 22.9958 63.4426L22.5641 64.4765L21.5134 64.072C20.2851 63.5979 18.9916 63.3584 17.6721 63.3584C11.814 63.3584 7.04732 68.0928 7.04732 73.9128C7.04732 79.7328 11.814 84.4671 17.6721 84.4671C18.2341 84.4671 18.8059 84.4218 19.3712 84.3312L20.4855 84.1532H20.4822Z" fill="#412911"/>
</g>
<defs>
<clipPath id="clip0_851_7324">
<rect width="120" height="229" fill="white"/>
</clipPath>
</defs>
</svg>
