<svg width="24" height="24" viewBox="0 0 24 24" fill="none" xmlns="http://www.w3.org/2000/svg">
<path d="M4.54272 19.4286H8.48557V11.4286H4.54272V19.4286ZM10.457 19.4286H14.3999V5.42859H10.457V19.4286ZM16.3713 19.4286H20.3141V13.4286H16.3713V19.4286ZM2.57129 19.4286V11.4286C2.57129 10.8786 2.76449 10.4079 3.15089 10.0166C3.53729 9.62526 4.00123 9.42926 4.54272 9.42859H8.48557V5.42859C8.48557 4.87859 8.67877 4.40792 9.06518 4.01659C9.45157 3.62526 9.91552 3.42926 10.457 3.42859H14.3999C14.942 3.42859 15.4063 3.62459 15.7927 4.01659C16.1791 4.40859 16.3719 4.87926 16.3713 5.42859V11.4286H20.3141C20.8563 11.4286 21.3206 11.6246 21.707 12.0166C22.0934 12.4086 22.2862 12.8793 22.2856 13.4286V19.4286C22.2856 19.9786 22.0927 20.4496 21.707 20.8416C21.3212 21.2336 20.8569 21.4293 20.3141 21.4286H4.54272C4.00057 21.4286 3.53663 21.2329 3.15089 20.8416C2.76515 20.4503 2.57195 19.9793 2.57129 19.4286Z" fill="#282828"/>
</svg>
