<svg width="40" height="40" viewBox="0 0 40 40" fill="none" xmlns="http://www.w3.org/2000/svg">
<path d="M23.6667 31L16.3333 28.4333L10.65 30.6333C10.2426 30.7963 9.86574 30.7507 9.51944 30.4964C9.17315 30.2422 9 29.9008 9 29.4722V12.3611C9 12.0963 9.07659 11.862 9.22978 11.6583C9.38296 11.4546 9.59156 11.3019 9.85556 11.2L16.3333 9L23.6667 11.5667L29.35 9.36667C29.7574 9.2037 30.1343 9.24974 30.4806 9.50478C30.8269 9.75981 31 10.1008 31 10.5278V27.6389C31 27.9037 30.9238 28.138 30.7714 28.3417C30.6191 28.5454 30.4101 28.6981 30.1444 28.8L23.6667 31ZM22.4444 28.0056V13.7056L17.5556 11.9944V26.2944L22.4444 28.0056ZM24.8889 28.0056L28.5556 26.7833V12.3L24.8889 13.7056V28.0056ZM11.4444 27.7L15.1111 26.2944V11.9944L11.4444 13.2167V27.7Z" fill="#282828"/>
</svg>
