<svg width="40" height="40" viewBox="0 0 40 40" fill="none" xmlns="http://www.w3.org/2000/svg">
<path d="M21.7695 9.2373C23.3082 9.23731 24.6538 10.306 24.9639 11.8203C24.9869 11.9326 25.0472 12.0344 25.1348 12.1084C25.2222 12.1823 25.3319 12.2245 25.4463 12.2285H25.4844C27.0104 12.296 28.2252 12.4836 29.248 13.1553C29.884 13.5725 30.4318 14.1087 30.8584 14.7363C31.397 15.5267 31.6283 16.4282 31.7383 17.4883L31.7734 17.8887C31.8454 18.8508 31.8447 20.0162 31.8447 21.4307V21.5234C31.8447 23.14 31.8458 24.4327 31.7383 25.4658C31.6283 26.526 31.3969 27.4274 30.8584 28.2188V28.2197C30.4835 28.7678 30.0177 29.247 29.4824 29.6377L29.248 29.7998C28.5484 30.2586 27.7638 30.4894 26.8584 30.6113L26.4629 30.6572C25.4129 30.7624 24.1003 30.7627 22.4512 30.7627H17.5479C15.8988 30.7627 14.5861 30.7624 13.5361 30.6572C12.4613 30.5506 11.5508 30.3254 10.751 29.7998H10.75C10.1158 29.3825 9.56902 28.8455 9.14062 28.2188V28.2178C8.60201 27.4274 8.37075 26.526 8.26074 25.4658C8.15326 24.4327 8.15332 23.14 8.15332 21.5234V21.4307C8.15332 19.8142 8.15327 18.5225 8.26074 17.4883C8.37076 16.4281 8.60198 15.5267 9.14062 14.7363L9.30664 14.5049C9.70696 13.9764 10.195 13.5195 10.75 13.1543H10.751C11.6459 12.5677 12.6874 12.3502 13.9561 12.2607L14.5146 12.2295L14.5293 12.2285H14.5518C14.6663 12.2246 14.7767 12.1824 14.8643 12.1084C14.9517 12.0344 15.0112 11.9325 15.0342 11.8203C15.3431 10.3058 16.691 9.2373 18.2295 9.2373H21.7695ZM18.2295 11.2627C17.629 11.2627 17.1302 11.6775 17.0186 12.2246C16.7894 13.3524 15.7897 14.2433 14.5801 14.2539L14.5791 14.2529C13.1306 14.3179 12.3965 14.4954 11.8604 14.8467L11.8613 14.8477C11.5004 15.0855 11.1825 15.3829 10.9219 15.7266L10.8145 15.876C10.5418 16.2761 10.3671 16.8012 10.2734 17.6982C10.1795 18.6129 10.1787 19.7967 10.1787 21.4775C10.1787 23.159 10.1793 24.3415 10.2754 25.2559V25.2568C10.3564 26.0416 10.4998 26.5414 10.7178 26.9229L10.8154 27.0791V27.0801C11.0909 27.485 11.4457 27.8348 11.8613 28.1074C12.2751 28.3783 12.818 28.5519 13.7373 28.6436C14.6718 28.7365 15.8797 28.7373 17.5918 28.7373H22.4062C24.1179 28.7373 25.3262 28.7376 26.2617 28.6436L26.5898 28.6045C27.3149 28.5064 27.775 28.345 28.1367 28.1074C28.5526 27.8346 28.9092 27.485 29.1846 27.0791V27.0781C29.4571 26.678 29.631 26.1527 29.7246 25.2559C29.8186 24.3412 29.8203 23.1574 29.8203 21.4775C29.8203 20.0075 29.8203 18.9169 29.7559 18.0547L29.7236 17.6982C29.6311 16.8012 29.4571 16.276 29.1836 15.876C28.9396 15.5193 28.6371 15.2068 28.2891 14.9521L28.1367 14.8467C27.6027 14.4964 26.8689 14.3179 25.417 14.2529C24.2089 14.241 23.2086 13.3536 22.9795 12.2246V12.2236C22.9194 11.9497 22.7671 11.7043 22.5479 11.5293C22.3277 11.3536 22.0532 11.2598 21.7715 11.2627H18.2295ZM19.999 16.8213C21.1295 16.8213 22.2143 17.27 23.0137 18.0693C23.8129 18.8686 24.2616 19.9527 24.2617 21.083C24.2617 22.2135 23.813 23.2983 23.0137 24.0977C22.2143 24.897 21.1295 25.3457 19.999 25.3457C18.8687 25.3456 17.7846 24.8969 16.9854 24.0977C16.186 23.2983 15.7373 22.2135 15.7373 21.083C15.7374 19.9526 16.1861 18.8686 16.9854 18.0693C17.7846 17.27 18.8687 16.8214 19.999 16.8213ZM19.999 18.8457C19.4057 18.8458 18.8365 19.0814 18.417 19.501C17.9975 19.9205 17.7618 20.4897 17.7617 21.083C17.7617 21.6763 17.9976 22.2455 18.417 22.665C18.8365 23.0846 19.4057 23.3212 19.999 23.3213C20.5924 23.3213 21.1614 23.0847 21.5811 22.665C22.0007 22.2454 22.2373 21.6764 22.2373 21.083C22.2372 20.4897 22.0006 19.9205 21.5811 19.501C21.1615 19.0816 20.5923 18.8457 19.999 18.8457ZM27.583 16.8213C27.8514 16.8214 28.109 16.9274 28.2988 17.1172C28.4886 17.307 28.5946 17.5646 28.5947 17.833C28.5947 18.1014 28.4885 18.359 28.2988 18.5488C28.109 18.7386 27.8514 18.8456 27.583 18.8457H26.499C26.2306 18.8456 25.973 18.7386 25.7832 18.5488C25.5935 18.359 25.4873 18.1014 25.4873 17.833C25.4874 17.5646 25.5934 17.307 25.7832 17.1172C25.973 16.9274 26.2306 16.8214 26.499 16.8213H27.583Z" fill="#282828" stroke="#282828" stroke-width="0.4"/>
</svg>
