<svg width="27" height="27" viewBox="0 0 27 27" fill="none" xmlns="http://www.w3.org/2000/svg">
<path d="M13.125 2C15.7771 2 18.32 3.03778 20.1953 4.88379C22.0707 6.72983 23.125 9.23305 23.125 11.8438C23.125 15.2138 21.259 17.9556 19.3242 19.9023L19.3232 19.9033C18.3561 20.8658 17.3009 21.7391 16.1709 22.5107L16.1689 22.5117L15.707 22.8213L15.7051 22.8232L15.4873 22.9648L15.4834 22.9678L15.0752 23.2236L15.0713 23.2266L14.7061 23.4453L14.7021 23.4482L14.7012 23.4473L14.252 23.7051L14.25 23.7061C13.9503 23.8744 13.6155 23.9731 13.2725 23.9951L13.125 24C12.7306 24 12.3426 23.8985 12 23.7061L11.998 23.7051L11.5479 23.4473L11.543 23.4443L10.9785 23.1035L10.9736 23.0996L10.7656 22.9658L10.7637 22.9648L10.3184 22.6729L10.3174 22.6719C9.09843 21.86 7.96239 20.9327 6.92676 19.9033L6.92578 19.9023C4.99105 17.9546 3.12503 15.2139 3.125 11.8438C3.125 9.23305 4.17932 6.72983 6.05469 4.88379C7.93005 3.03778 10.4729 2 13.125 2ZM13.125 4.60938C11.1758 4.60938 9.30698 5.37182 7.92871 6.72852C6.55043 8.08525 5.77539 9.92504 5.77539 11.8438C5.77542 14.2323 7.10541 16.3505 8.81836 18.0762C9.55395 18.8092 10.3497 19.4829 11.1963 20.0889L11.6904 20.4355H11.6914C11.8498 20.5444 12.0028 20.6453 12.1484 20.7383H12.1475L12.5645 21.002H12.5654L12.9365 21.2246H12.9355L13.123 21.332L13.4961 21.1162L13.8887 20.875C14.0971 20.7448 14.3208 20.5981 14.5596 20.4355L15.0527 20.0889C15.8995 19.4828 16.6949 18.8094 17.4307 18.0762C19.1438 16.3515 20.4746 14.2326 20.4746 11.8438C20.4746 9.92504 19.6996 8.08525 18.3213 6.72852C16.943 5.37182 15.0742 4.60938 13.125 4.60938ZM13.125 7.33691C14.3392 7.33691 15.5037 7.81205 16.3623 8.65723C17.2208 9.50239 17.7031 10.6486 17.7031 11.8438C17.7031 13.039 17.2209 14.1851 16.3623 15.0303C15.5037 15.8755 14.3392 16.3506 13.125 16.3506C11.9108 16.3506 10.7463 15.8755 9.8877 15.0303C9.02915 14.1851 8.5469 13.039 8.54688 11.8438C8.54688 10.6486 9.02918 9.50239 9.8877 8.65723C10.7463 7.81205 11.9108 7.33691 13.125 7.33691ZM13.125 9.94629C12.6137 9.94629 12.1232 10.1461 11.7617 10.502C11.4003 10.8578 11.1973 11.3405 11.1973 11.8438C11.1973 12.347 11.4003 12.8297 11.7617 13.1855C12.1232 13.5414 12.6137 13.7412 13.125 13.7412C13.6363 13.7412 14.1268 13.5414 14.4883 13.1855C14.8497 12.8297 15.0527 12.347 15.0527 11.8438C15.0527 11.3405 14.8497 10.8578 14.4883 10.502C14.1268 10.1461 13.6363 9.94629 13.125 9.94629Z" fill="#535353"/>
</svg>
