<svg width="28" height="28" viewBox="0 0 28 28" fill="none" xmlns="http://www.w3.org/2000/svg">
<path d="M16.6482 1.16699C18.4251 1.16717 20.1913 2.17995 20.698 3.91895H20.699L22.0339 8.14941C24.385 9.79274 26.1037 12.1998 26.7556 15.0068H26.7566C27.2197 16.9897 25.5847 18.667 23.6873 18.667C23.5575 18.6669 23.4328 18.6447 23.3162 18.6055C23.046 23.1947 19.2407 26.8328 14.5837 26.833C9.92656 26.833 6.11948 23.1949 5.84937 18.6055C5.73298 18.6445 5.60874 18.6669 5.47925 18.667C3.57374 18.667 1.94733 16.9874 2.40991 15.0068H2.41089C3.0636 12.1965 4.78402 9.78615 7.13843 8.14258L8.55054 3.58105C8.99633 2.04288 10.5479 1.16708 12.0789 1.16699H16.6482ZM8.40991 16.333C8.25246 16.8894 8.16678 17.4762 8.16675 18.083C8.16675 21.6268 11.0399 24.5 14.5837 24.5C18.1274 24.4998 20.9998 21.6267 20.9998 18.083C20.9997 17.4762 20.914 16.8894 20.7566 16.333H8.40991ZM11.9998 18C12.552 18 12.9998 18.4477 12.9998 19C12.9998 19.5523 12.552 20 11.9998 20C11.4476 19.9999 10.9998 19.5522 10.9998 19C10.9998 18.4478 11.4476 18.0001 11.9998 18ZM16.9998 18C17.552 18 17.9998 18.4477 17.9998 19C17.9998 19.5523 17.552 20 16.9998 20C16.4476 19.9999 15.9998 19.5522 15.9998 19C15.9998 18.4478 16.4476 18.0001 16.9998 18ZM14.5808 8.16699C9.66544 8.16708 5.64756 11.3775 4.68237 15.5361L4.6814 15.5381C4.60943 15.8471 4.85601 16.333 5.47925 16.333C5.6615 16.3331 5.83338 16.3766 5.98706 16.4512C6.75177 12.3989 10.3091 9.33301 14.5837 9.33301C18.8581 9.33323 22.4137 12.3991 23.1785 16.4512C23.3323 16.3763 23.5047 16.3331 23.6873 16.333C24.3074 16.333 24.5566 15.8448 24.4851 15.5381L24.4841 15.5361C23.5191 11.3782 19.4968 8.16717 14.5808 8.16699ZM14.5837 11.667C12.5912 11.667 10.8105 12.575 9.63354 14H19.533C18.3561 12.5751 16.5761 11.6671 14.5837 11.667ZM12.0789 3.5C11.3127 3.50009 10.8756 3.93016 10.7898 4.23828L10.7849 4.25391L10.7791 4.27051L10.0476 6.63281C11.4564 6.11706 12.9861 5.83303 14.5808 5.83301C16.1725 5.83306 17.7 6.11593 19.1072 6.62988L18.4744 4.62109L18.4626 4.58398C18.3193 4.0713 17.6639 3.50017 16.6482 3.5H12.0789Z" fill="#535353"/>
</svg>
