<svg width="28" height="28" viewBox="0 0 28 28" fill="none" xmlns="http://www.w3.org/2000/svg">
<path fill-rule="evenodd" clip-rule="evenodd" d="M12.9068 2.71651C13.1938 2.48696 13.5458 2.35362 13.9129 2.3354C14.28 2.31719 14.6435 2.41501 14.9519 2.61501L15.0931 2.71651L20.1238 6.74151C20.3692 6.93768 20.5725 7.1814 20.7214 7.45806C20.8704 7.73471 20.9619 8.03861 20.9906 8.35151L20.9999 8.56267V11.5027H23.3333C23.9219 11.5025 24.4889 11.7248 24.9206 12.1251C25.3522 12.5254 25.6166 13.074 25.6608 13.661L25.6666 13.836V23.0527C25.6667 23.3689 25.5501 23.6741 25.3391 23.9096C25.1281 24.1452 24.8376 24.2945 24.5233 24.329L24.3833 24.336H3.61659C3.30035 24.3362 2.99519 24.2196 2.75964 24.0086C2.5241 23.7976 2.37475 23.507 2.34025 23.1927L2.33325 23.0527V13.836C2.33307 13.2473 2.55539 12.6803 2.95567 12.2487C3.35594 11.8171 3.90457 11.5527 4.49159 11.5085L4.66659 11.5027H6.99992V8.56267C6.9999 8.24847 7.06334 7.9375 7.18643 7.64842C7.30952 7.35933 7.48973 7.09808 7.71625 6.88034L7.87609 6.74034L12.9068 2.71651ZM13.9999 4.82934L9.33325 8.56267V22.0027H18.6666V8.56267L13.9999 4.82934ZM23.3333 13.836H20.9999V22.0027H23.3333V13.836ZM6.99992 13.836H4.66659V22.0027H6.99992V13.836ZM13.9999 9.16934C14.4595 9.16934 14.9147 9.25987 15.3393 9.43576C15.764 9.61165 16.1498 9.86946 16.4748 10.1945C16.7998 10.5195 17.0576 10.9053 17.2335 11.3299C17.4094 11.7546 17.4999 12.2097 17.4999 12.6693C17.4999 13.129 17.4094 13.5841 17.2335 14.0087C17.0576 14.4334 16.7998 14.8192 16.4748 15.1442C16.1498 15.4692 15.764 15.727 15.3393 15.9029C14.9147 16.0788 14.4595 16.1693 13.9999 16.1693C13.0717 16.1693 12.1814 15.8006 11.525 15.1442C10.8687 14.4878 10.4999 13.5976 10.4999 12.6693C10.4999 11.7411 10.8687 10.8508 11.525 10.1945C12.1814 9.53809 13.0717 9.16934 13.9999 9.16934ZM13.9999 11.5027C13.6905 11.5027 13.3938 11.6256 13.175 11.8444C12.9562 12.0632 12.8333 12.3599 12.8333 12.6693C12.8333 12.9788 12.9562 13.2755 13.175 13.4943C13.3938 13.7131 13.6905 13.836 13.9999 13.836C14.3093 13.836 14.6061 13.7131 14.8249 13.4943C15.0437 13.2755 15.1666 12.9788 15.1666 12.6693C15.1666 12.3599 15.0437 12.0632 14.8249 11.8444C14.6061 11.6256 14.3093 11.5027 13.9999 11.5027Z" fill="#535353"/>
</svg>
