<svg width="28" height="28" viewBox="0 0 28 28" fill="none" xmlns="http://www.w3.org/2000/svg">
<path d="M5.3 22.6667H9.9V13.3333H5.3V22.6667ZM12.2 22.6667H16.8V6.33333H12.2V22.6667ZM19.1 22.6667H23.7V15.6667H19.1V22.6667ZM3 22.6667V13.3333C3 12.6917 3.2254 12.1426 3.6762 11.686C4.127 11.2294 4.66827 11.0008 5.3 11H9.9V6.33333C9.9 5.69167 10.1254 5.14256 10.5762 4.686C11.027 4.22944 11.5683 4.00078 12.2 4H16.8C17.4325 4 17.9741 4.22867 18.4249 4.686C18.8757 5.14333 19.1008 5.69244 19.1 6.33333V13.3333H23.7C24.3325 13.3333 24.8741 13.562 25.3249 14.0193C25.7757 14.4767 26.0008 15.0258 26 15.6667V22.6667C26 23.3083 25.775 23.8578 25.3249 24.3152C24.8749 24.7725 24.3333 25.0008 23.7 25H5.3C4.6675 25 4.12623 24.7717 3.6762 24.3152C3.22617 23.8586 3.00077 23.3091 3 22.6667Z" fill="#535353"/>
</svg>
