<svg width="28" height="28" viewBox="0 0 28 28" fill="none" xmlns="http://www.w3.org/2000/svg">
<path d="M23.3839 14.7715C23.1969 14.5586 23.0938 14.2849 23.0938 14.0015C23.0938 13.7181 23.1969 13.4444 23.3839 13.2315L24.8773 11.5515C25.0418 11.368 25.144 11.137 25.1692 10.8918C25.1943 10.6465 25.1411 10.3996 25.0173 10.1865L22.6839 6.14984C22.5613 5.93695 22.3746 5.76819 22.1505 5.66764C21.9263 5.56708 21.6762 5.53986 21.4356 5.58984L19.2423 6.03317C18.9632 6.09084 18.6726 6.04436 18.4255 5.90251C18.1783 5.76065 17.9916 5.53324 17.9006 5.26317L17.1889 3.12817C17.1107 2.89645 16.9616 2.69518 16.7627 2.55282C16.5638 2.41046 16.3252 2.33421 16.0806 2.33484H11.4139C11.1595 2.32156 10.9078 2.39192 10.6971 2.53517C10.4864 2.67842 10.3285 2.88669 10.2473 3.12817L9.59395 5.26317C9.50295 5.53324 9.31625 5.76065 9.06908 5.90251C8.82191 6.04436 8.53136 6.09084 8.25228 6.03317L6.00061 5.58984C5.77259 5.55762 5.54013 5.5936 5.33252 5.69325C5.12491 5.7929 4.95143 5.95177 4.83395 6.14984L2.50061 10.1865C2.37363 10.3973 2.31654 10.6428 2.33749 10.8879C2.35844 11.1331 2.45637 11.3654 2.61728 11.5515L4.09894 13.2315C4.28598 13.4444 4.38913 13.7181 4.38913 14.0015C4.38913 14.2849 4.28598 14.5586 4.09894 14.7715L2.61728 16.4515C2.45637 16.6377 2.35844 16.8699 2.33749 17.1151C2.31654 17.3602 2.37363 17.6057 2.50061 17.8165L4.83395 21.8532C4.95656 22.0661 5.14325 22.2348 5.36741 22.3354C5.59156 22.4359 5.84174 22.4632 6.08228 22.4132L8.27561 21.9698C8.5547 21.9122 8.84524 21.9587 9.09241 22.1005C9.33958 22.2424 9.52628 22.4698 9.61728 22.7398L10.3289 24.8748C10.4101 25.1163 10.5681 25.3246 10.7788 25.4678C10.9894 25.6111 11.2412 25.6814 11.4956 25.6682H16.1623C16.4069 25.6688 16.6455 25.5925 16.8443 25.4502C17.0432 25.3078 17.1923 25.1066 17.2706 24.8748L17.9823 22.7398C18.0733 22.4698 18.26 22.2424 18.5071 22.1005C18.7543 21.9587 19.0449 21.9122 19.3239 21.9698L21.5173 22.4132C21.7578 22.4632 22.008 22.4359 22.2322 22.3354C22.4563 22.2348 22.643 22.0661 22.7656 21.8532L25.0989 17.8165C25.2228 17.6034 25.276 17.3565 25.2508 17.1112C25.2257 16.866 25.1235 16.6351 24.9589 16.4515L23.3839 14.7715ZM21.6456 16.3348L22.5789 17.3848L21.0856 19.9748L19.7089 19.6948C18.8687 19.5231 17.9946 19.6658 17.2526 20.0959C16.5107 20.5261 15.9524 21.2137 15.6839 22.0282L15.2406 23.3348H12.2539L11.8339 22.0048C11.5654 21.1903 11.0072 20.5027 10.2653 20.0726C9.52328 19.6425 8.6492 19.4997 7.80895 19.6715L6.43228 19.9515L4.91561 17.3732L5.84894 16.3232C6.42289 15.6815 6.7402 14.8508 6.7402 13.9898C6.7402 13.1289 6.42289 12.2982 5.84894 11.6565L4.91561 10.6065L6.40895 8.03984L7.78561 8.31984C8.62587 8.4916 9.49994 8.34887 10.2419 7.91874C10.9839 7.48861 11.5421 6.80102 11.8106 5.98651L12.2539 4.66817H15.2406L15.6839 5.99817C15.9524 6.81269 16.5107 7.50027 17.2526 7.9304C17.9946 8.36053 18.8687 8.50326 19.7089 8.3315L21.0856 8.05151L22.5789 10.6415L21.6456 11.6915C21.0781 12.3317 20.7647 13.1576 20.7647 14.0132C20.7647 14.8687 21.0781 15.6946 21.6456 16.3348ZM13.7473 9.33484C12.8243 9.33484 11.922 9.60853 11.1546 10.1213C10.3872 10.6341 9.78905 11.3629 9.43584 12.2156C9.08263 13.0684 8.99022 14.0067 9.17028 14.9119C9.35034 15.8172 9.7948 16.6487 10.4474 17.3013C11.1001 17.954 11.9316 18.3984 12.8369 18.5785C13.7421 18.7586 14.6804 18.6662 15.5331 18.3129C16.3859 17.9597 17.1147 17.3616 17.6275 16.5942C18.1403 15.8267 18.4139 14.9245 18.4139 14.0015C18.4139 12.7638 17.9223 11.5768 17.0471 10.7017C16.1719 9.8265 14.985 9.33484 13.7473 9.33484ZM13.7473 16.3348C13.2858 16.3348 12.8347 16.198 12.4509 15.9416C12.0672 15.6852 11.7682 15.3208 11.5916 14.8944C11.415 14.4681 11.3687 13.9989 11.4588 13.5463C11.5488 13.0937 11.771 12.6779 12.0974 12.3516C12.4237 12.0253 12.8394 11.803 13.2921 11.713C13.7447 11.623 14.2138 11.6692 14.6402 11.8458C15.0666 12.0224 15.431 12.3215 15.6874 12.7052C15.9438 13.0889 16.0806 13.54 16.0806 14.0015C16.0806 14.6203 15.8348 15.2138 15.3972 15.6514C14.9596 16.089 14.3661 16.3348 13.7473 16.3348Z" fill="#535353"/>
</svg>
