<svg width="12" height="12" viewBox="0 0 12 12" fill="none" xmlns="http://www.w3.org/2000/svg">
<path d="M5.99994 10.5C6.9984 10.4999 7.96845 10.1677 8.75738 9.55569C9.54631 8.94372 10.1093 8.08675 10.3577 7.11969C10.6062 6.15264 10.5259 5.13042 10.1297 4.21398C9.73338 3.29753 9.04356 2.5389 8.1688 2.05753C7.29405 1.57615 6.28404 1.39937 5.29779 1.55502C4.31154 1.71066 3.40506 2.18989 2.72106 2.91726C2.03706 3.64463 1.6144 4.57882 1.5196 5.57276C1.4248 6.56671 1.66326 7.56396 2.19744 8.40751L1.49994 10.5L3.59244 9.80251C4.31223 10.2593 5.14742 10.5013 5.99994 10.5Z" stroke="#535353" stroke-linecap="round" stroke-linejoin="round"/>
</svg>
