<svg width="12" height="12" viewBox="0 0 12 12" fill="none" xmlns="http://www.w3.org/2000/svg">
<path d="M3.5 5.5V9.5C3.5 9.63261 3.44732 9.75979 3.35355 9.85355C3.25979 9.94732 3.13261 10 3 10H2C1.86739 10 1.74021 9.94732 1.64645 9.85355C1.55268 9.75979 1.5 9.63261 1.5 9.5V6C1.5 5.86739 1.55268 5.74021 1.64645 5.64645C1.74021 5.55268 1.86739 5.5 2 5.5H3.5ZM3.5 5.5C4.03043 5.5 4.53914 5.28929 4.91421 4.91421C5.28929 4.53914 5.5 4.03043 5.5 3.5V3C5.5 2.73478 5.60536 2.48043 5.79289 2.29289C5.98043 2.10536 6.23478 2 6.5 2C6.76522 2 7.01957 2.10536 7.20711 2.29289C7.39464 2.48043 7.5 2.73478 7.5 3V5.5H9C9.26522 5.5 9.51957 5.60536 9.70711 5.79289C9.89464 5.98043 10 6.23478 10 6.5L9.5 9C9.42809 9.30674 9.29169 9.57012 9.11133 9.75048C8.93097 9.93084 8.71642 10.0184 8.5 10H5C4.60218 10 4.22064 9.84196 3.93934 9.56066C3.65804 9.27936 3.5 8.89782 3.5 8.5" stroke="#AAEB2F" stroke-linecap="round" stroke-linejoin="round"/>
</svg>
