<svg width="10" height="9" viewBox="0 0 10 9" fill="none" xmlns="http://www.w3.org/2000/svg">
<path d="M2.5 4V8C2.5 8.13261 2.44732 8.25979 2.35355 8.35355C2.25979 8.44732 2.13261 8.5 2 8.5H1C0.867392 8.5 0.740215 8.44732 0.646447 8.35355C0.552678 8.25979 0.5 8.13261 0.5 8V4.5C0.5 4.36739 0.552678 4.24021 0.646447 4.14645C0.740215 4.05268 0.867392 4 1 4H2.5ZM2.5 4C3.03043 4 3.53914 3.78929 3.91421 3.41421C4.28929 3.03914 4.5 2.53043 4.5 2V1.5C4.5 1.23478 4.60536 0.98043 4.79289 0.792893C4.98043 0.605357 5.23478 0.5 5.5 0.5C5.76522 0.5 6.01957 0.605357 6.20711 0.792893C6.39464 0.98043 6.5 1.23478 6.5 1.5V4H8C8.26522 4 8.51957 4.10536 8.70711 4.29289C8.89464 4.48043 9 4.73478 9 5L8.5 7.5C8.42809 7.80674 8.29169 8.07012 8.11133 8.25048C7.93097 8.43084 7.71642 8.51841 7.5 8.5H4C3.60218 8.5 3.22064 8.34196 2.93934 8.06066C2.65804 7.77936 2.5 7.39782 2.5 7" stroke="#535353" stroke-linecap="round" stroke-linejoin="round"/>
</svg>
