<svg width="25" height="25" viewBox="0 0 25 25" fill="none" xmlns="http://www.w3.org/2000/svg">
<path fill-rule="evenodd" clip-rule="evenodd" d="M9.22806 8.20051C9.09335 8.0704 8.91292 7.9984 8.72563 8.00003C8.53835 8.00165 8.3592 8.07678 8.22676 8.20921C8.09433 8.34164 8.01921 8.5208 8.01758 8.70808C8.01595 8.89536 8.08795 9.07579 8.21806 9.21051L11.9988 12.9912L8.21806 16.7719C8.14984 16.8378 8.09543 16.9166 8.05799 17.0038C8.02056 17.0909 8.00085 17.1847 8.00003 17.2795C7.9992 17.3743 8.01728 17.4684 8.05319 17.5562C8.08911 17.644 8.14214 17.7237 8.20921 17.7908C8.27628 17.8579 8.35603 17.9109 8.44381 17.9468C8.53159 17.9827 8.62565 18.0008 8.72049 18C8.81533 17.9991 8.90906 17.9794 8.99621 17.942C9.08335 17.9046 9.16217 17.8502 9.22806 17.7819L13.0088 14.0012L16.7895 17.7819C16.9242 17.912 17.1046 17.984 17.2919 17.9824C17.4792 17.9808 17.6584 17.9057 17.7908 17.7732C17.9232 17.6408 17.9983 17.4616 18 17.2744C18.0016 17.0871 17.9296 16.9067 17.7995 16.7719L14.0188 12.9912L17.7995 9.21051C17.9296 9.07579 18.0016 8.89536 18 8.70808C17.9983 8.5208 17.9232 8.34164 17.7908 8.20921C17.6584 8.07678 17.4792 8.00165 17.2919 8.00003C17.1046 7.9984 16.9242 8.0704 16.7895 8.20051L13.0088 11.9812L9.22806 8.20051Z" fill="#7E7E7E"/>
</svg>
