<svg width="20" height="20" viewBox="0 0 20 20" fill="none" xmlns="http://www.w3.org/2000/svg">
<path d="M10.0003 1.66699C14.6028 1.66699 18.3337 5.39783 18.3337 10.0003C18.3337 14.6028 14.6028 18.3337 10.0003 18.3337C5.39783 18.3337 1.66699 14.6028 1.66699 10.0003C1.66699 5.39783 5.39783 1.66699 10.0003 1.66699ZM10.0003 3.33366C8.23222 3.33366 6.53652 4.03604 5.28628 5.28628C4.03604 6.53652 3.33366 8.23222 3.33366 10.0003C3.33366 11.7684 4.03604 13.4641 5.28628 14.7144C6.53652 15.9646 8.23222 16.667 10.0003 16.667C11.7684 16.667 13.4641 15.9646 14.7144 14.7144C15.9646 13.4641 16.667 11.7684 16.667 10.0003C16.667 8.23222 15.9646 6.53652 14.7144 5.28628C13.4641 4.03604 11.7684 3.33366 10.0003 3.33366ZM9.99199 8.33366C10.457 8.33366 10.8337 8.71033 10.8337 9.17533V13.4453C10.9925 13.5371 11.1167 13.6786 11.1869 13.8481C11.2571 14.0176 11.2694 14.2055 11.2219 14.3827C11.1744 14.5599 11.0698 14.7164 10.9243 14.8281C10.7787 14.9398 10.6004 15.0003 10.417 15.0003H10.0087C9.89813 15.0003 9.78868 14.9786 9.68657 14.9363C9.58445 14.894 9.49167 14.832 9.41351 14.7538C9.33535 14.6757 9.27336 14.5829 9.23106 14.4808C9.18876 14.3786 9.16699 14.2692 9.16699 14.1587V10.0003C8.94598 10.0003 8.73402 9.91253 8.57774 9.75625C8.42146 9.59997 8.33366 9.38801 8.33366 9.16699C8.33366 8.94598 8.42146 8.73402 8.57774 8.57774C8.73402 8.42146 8.94598 8.33366 9.16699 8.33366H9.99199ZM10.0003 5.83366C10.2213 5.83366 10.4333 5.92146 10.5896 6.07774C10.7459 6.23402 10.8337 6.44598 10.8337 6.66699C10.8337 6.88801 10.7459 7.09997 10.5896 7.25625C10.4333 7.41253 10.2213 7.50033 10.0003 7.50033C9.77931 7.50033 9.56735 7.41253 9.41107 7.25625C9.25479 7.09997 9.16699 6.88801 9.16699 6.66699C9.16699 6.44598 9.25479 6.23402 9.41107 6.07774C9.56735 5.92146 9.77931 5.83366 10.0003 5.83366Z" fill="white"/>
</svg>
