<svg width="24" height="23" viewBox="0 0 24 23" fill="none" xmlns="http://www.w3.org/2000/svg">
<path d="M7.72795 8.86012L8.27195 10.7039C7.56211 10.8972 6.91276 11.2548 6.38111 11.7453C5.84946 12.2357 5.45181 12.8439 5.22321 13.5163C4.9946 14.1887 4.94205 14.9046 5.07019 15.6011C5.19832 16.2975 5.50321 16.9531 5.95799 17.51C6.41277 18.0669 7.00348 18.5081 7.6781 18.7947C8.35272 19.0813 9.09053 19.2045 9.82654 19.1535C10.5625 19.1025 11.2742 18.8788 11.8987 18.5021C12.5233 18.1254 13.0416 17.6073 13.4079 16.9935L13.5099 16.8143L15.2899 17.6864C14.8038 18.5981 14.0906 19.3809 13.2136 19.9655C12.3365 20.5501 11.3226 20.9186 10.2615 21.0382C9.2005 21.1579 8.12504 21.025 7.13033 20.6515C6.13563 20.2779 5.25234 19.6751 4.55862 18.8965C3.86491 18.1178 3.38217 17.1873 3.15311 16.1873C2.92405 15.1872 2.95574 14.1485 3.24537 13.163C3.535 12.1775 4.07365 11.2756 4.81364 10.5371C5.55364 9.79865 6.47217 9.24635 7.48795 8.92912L7.72795 8.86012ZM10.9999 1.91699C11.6606 1.91665 12.303 2.12535 12.8272 2.51067C13.3515 2.896 13.7284 3.4364 13.8994 4.048C14.0703 4.6596 14.0259 5.30819 13.7728 5.89308C13.5198 6.47797 13.0723 6.96645 12.4999 7.2827V8.5477L14.2429 9.10449H15.9999C16.3978 9.10449 16.7793 9.25594 17.0606 9.52553C17.3419 9.79511 17.4999 10.1607 17.4999 10.542C17.4999 10.9232 17.3419 11.2889 17.0606 11.5585C16.7793 11.828 16.3978 11.9795 15.9999 11.9795H13.9999C13.8379 11.9795 13.6799 11.9549 13.5259 11.9057L12.4999 11.578V12.4587C12.4999 12.5857 12.5526 12.7076 12.6464 12.7975C12.7402 12.8873 12.8673 12.9378 12.9999 12.9378H14.9999C15.5433 12.9378 16.0792 13.0591 16.5652 13.2919C17.0512 13.5248 17.4739 13.8629 17.7999 14.2795L19.75 16.7712H20C20.3978 16.7712 20.7793 16.9226 21.0606 17.1922C21.3419 17.4618 21.5 17.8274 21.5 18.2087C21.5 18.5899 21.3419 18.9555 21.0606 19.2251C20.7793 19.4947 20.3978 19.6462 20 19.6462H18.9999C18.7671 19.6462 18.5374 19.5942 18.3291 19.4944C18.1208 19.3946 17.9397 19.2497 17.7999 19.0712L15.3999 16.0045C15.3534 15.945 15.293 15.8967 15.2236 15.8634C15.1541 15.8301 15.0776 15.8128 14.9999 15.8128H12.9999C12.0717 15.8128 11.1815 15.4594 10.5251 14.8304C9.8687 14.2014 9.49995 13.3482 9.49995 12.4587V7.2827C8.92756 6.96645 8.48013 6.47797 8.22709 5.89308C7.97405 5.30819 7.92956 4.6596 8.10054 4.048C8.27151 3.4364 8.64838 2.896 9.17265 2.51067C9.69692 2.12535 10.3393 1.91665 10.9999 1.91699Z" fill="black"/>
</svg>
