<svg width="44" height="44" viewBox="0 0 44 44" fill="none" xmlns="http://www.w3.org/2000/svg">
<path d="M27.4004 12C30.5459 12.0002 32.9999 14.4437 33 17.5938C33 19.5246 32.1369 21.3607 30.4131 23.4678C28.6783 25.5882 26.178 27.8595 23.0684 30.6768L23.0674 30.6777L22 31.6475L20.9326 30.6777L20.9316 30.6768L18.7158 28.6602C16.6193 26.7335 14.888 25.0581 13.5869 23.4678C11.8631 21.3607 11 19.5246 11 17.5938C11.0001 14.4437 13.4541 12.0002 16.5996 12C18.3856 12 20.1163 12.836 21.2412 14.1455L22 15.0283L22.7588 14.1455C23.8837 12.836 25.6144 12 27.4004 12Z" fill="#CCF382" stroke="#AAEB2F" stroke-width="2"/>
</svg>
