<svg width="32" height="32" viewBox="0 0 32 32" fill="none" xmlns="http://www.w3.org/2000/svg">
<rect x="0.5" y="0.5" width="31" height="31" rx="3.5" fill="#AAEB2F" stroke="#A9A9A9"/>
<path d="M13.4979 19.6626L23.9112 9.84744C24.1569 9.61581 24.4436 9.5 24.7713 9.5C25.099 9.5 25.3856 9.61581 25.6314 9.84744C25.8771 10.0791 26 10.3543 26 10.6732C26 10.9921 25.8771 11.2669 25.6314 11.4978L14.358 22.1526C14.1123 22.3842 13.8256 22.5 13.4979 22.5C13.1703 22.5 12.8836 22.3842 12.6379 22.1526L7.35443 17.1726C7.10869 16.941 6.99074 16.6661 7.00057 16.348C7.0104 16.0299 7.13859 15.7547 7.38515 15.5223C7.63171 15.2899 7.92373 15.1741 8.26122 15.1748C8.5987 15.1756 8.89031 15.2914 9.13605 15.5223L13.4979 19.6626Z" fill="white"/>
</svg>
