<svg width="22" height="22" viewBox="0 0 22 22" fill="none" xmlns="http://www.w3.org/2000/svg">
<path fill-rule="evenodd" clip-rule="evenodd" d="M2.70174 0.441119C2.40536 0.15487 2.00842 -0.00352097 1.59639 5.94041e-05C1.18437 0.00363978 0.790236 0.168905 0.498881 0.460261C0.207525 0.751616 0.0422598 1.14575 0.0386794 1.55777C0.035099 1.9698 0.19349 2.36674 0.479739 2.66312L8.79731 10.9807L0.479739 19.2983C0.329651 19.4432 0.209936 19.6166 0.127579 19.8083C0.0452223 20.0001 0.00187247 20.2063 5.9332e-05 20.4149C-0.00175381 20.6236 0.038006 20.8305 0.117019 21.0236C0.196032 21.2167 0.312715 21.3922 0.460261 21.5397C0.607806 21.6873 0.783259 21.804 0.976382 21.883C1.16951 21.962 1.37643 22.0018 1.58508 21.9999C1.79374 21.9981 1.99994 21.9548 2.19166 21.8724C2.38338 21.7901 2.55678 21.6703 2.70174 21.5203L11.0193 13.2027L19.3369 21.5203C19.6333 21.8065 20.0302 21.9649 20.4422 21.9613C20.8542 21.9577 21.2484 21.7925 21.5397 21.5011C21.8311 21.2098 21.9964 20.8156 21.9999 20.4036C22.0035 19.9916 21.8451 19.5946 21.5589 19.2983L13.2413 10.9807L21.5589 2.66312C21.8451 2.36674 22.0035 1.9698 21.9999 1.55777C21.9964 1.14575 21.8311 0.751616 21.5397 0.460261C21.2484 0.168905 20.8542 0.00363978 20.4422 5.94041e-05C20.0302 -0.00352097 19.6333 0.15487 19.3369 0.441119L11.0193 8.75869L2.70174 0.441119Z" fill="#282828"/>
</svg>
