<svg width="151" height="42" viewBox="0 0 151 42" fill="none" xmlns="http://www.w3.org/2000/svg">
<path d="M28.7153 41.687H32.6035V30.2983C32.6035 28.4866 31.8296 26.7985 30.4237 25.5448C29.0894 24.3546 27.3324 23.6991 25.4752 23.6991H20.298C20.2869 23.6991 20.2757 23.6991 20.2646 23.6999V27.6489C20.2646 27.6489 20.2653 27.6489 20.266 27.6489H25.4752C26.3875 27.6489 27.2336 27.9554 27.858 28.5127C27.8587 28.5127 27.8594 28.5141 27.8601 28.5148C27.9992 28.6392 28.0506 28.8376 27.9943 29.017C27.404 30.9008 26.3756 32.627 24.96 34.0651C22.6286 36.4334 19.529 37.738 16.2319 37.738C12.9347 37.738 9.83506 36.4334 7.50371 34.0651C5.17236 31.6968 3.88813 28.548 3.88813 25.1987C3.88813 21.8493 5.17236 18.7005 7.50371 16.3322C8.17468 15.6506 8.90962 15.058 9.69461 14.5587L8.02797 10.9691C8.00642 10.9811 7.98486 10.9932 7.96331 11.0059C6.79868 11.7065 5.72443 12.5541 4.75448 13.5394C3.26445 15.0531 2.09425 16.8161 1.27658 18.7803C0.429697 20.8145 0 22.9738 0 25.1994C0 27.425 0.429697 29.5842 1.27658 31.6184C2.09425 33.582 3.26445 35.3457 4.75448 36.8593C6.24452 38.373 7.98 39.5617 9.91363 40.3923C11.9161 41.2526 14.0416 41.6891 16.2325 41.6891C18.4235 41.6891 20.549 41.2526 22.5515 40.3923C24.4844 39.5617 26.2206 38.373 27.7106 36.8593C28.0645 36.4998 28.399 36.1261 28.716 35.7398V41.6891L28.7153 41.687Z" fill="#282828"/>
<path d="M23.8598 19.0043C18.702 19.0043 14.5059 14.7416 14.5059 9.50216C14.5059 4.26267 18.702 3.05176e-05 23.8598 3.05176e-05C29.0175 3.05176e-05 33.2137 4.26267 33.2137 9.50216C33.2137 14.7416 29.0175 19.0043 23.8598 19.0043ZM23.8598 3.94977C20.8456 3.94977 18.394 6.44026 18.394 9.50216C18.394 12.5641 20.8456 15.0545 23.8598 15.0545C26.8739 15.0545 29.3256 12.5641 29.3256 9.50216C29.3256 6.44026 26.8739 3.94977 23.8598 3.94977Z" fill="#282828"/>
<path d="M51.2129 18.6257H60.6214V11.6563H64.2317V18.6257H78.6359V21.56H51.2129V18.6257ZM71.5979 15.5815H68.0608V6.595H58.2149V3.55074H71.5979V15.5815Z" fill="#282828"/>
<path d="M84.2502 20.1291C85.8181 20.1291 86.8755 21.23 86.8755 22.7698C86.8755 24.3095 85.8181 25.4104 84.2502 25.4104C82.6823 25.4104 81.625 24.3095 81.625 22.7698C81.625 21.23 82.6823 20.1291 84.2502 20.1291ZM82.2449 3.40339H86.2565L85.782 17.8921H82.7184L82.2439 3.40339H82.2449Z" fill="#282828"/>
<path d="M107.332 21.1563H103.795V10.8127H94.4961V7.7311H107.332V21.1563ZM104.853 31.3899H115.063V27.5385H104.853V24.6405H118.601V34.0669H108.354V38.102H119.293V41.0363H104.853V31.3899ZM115.1 5.05415C114.079 4.39425 113.021 3.697 112 3.07341C112.401 2.26618 112.839 1.45998 113.276 0.65274L118.637 3.25706V21.6336H115.1V5.05415Z" fill="#282828"/>
<path d="M123.156 18.5883H135.081V15.3241H130.34V3.40339H143.613V6.41133H133.841V12.3899H143.905V15.3241H138.691V18.5883H150.579V21.5226H123.157V18.5883H123.156ZM136.867 35.3878C133.513 35.3878 130.522 33.1134 130.522 29.7029C130.522 26.2924 133.513 23.9806 136.867 23.9806C140.222 23.9806 143.212 26.255 143.212 29.7029C143.212 33.1508 140.259 35.3878 136.867 35.3878ZM136.867 32.6008C138.362 32.6008 139.894 31.5 139.894 29.7029C139.894 27.9058 138.362 26.8049 136.867 26.8049C135.373 26.8049 133.841 27.9421 133.841 29.7029C133.841 31.4637 135.335 32.6008 136.867 32.6008Z" fill="#282828"/>
</svg>
