<svg width="40" height="40" viewBox="0 0 40 40" fill="none" xmlns="http://www.w3.org/2000/svg">
<path d="M10.7273 33C9.97727 33 9.33545 32.7282 8.80182 32.1847C8.26818 31.6412 8.00091 30.987 8 30.2222V10.7778C8 10.0139 8.26727 9.36018 8.80182 8.81667C9.33636 8.27315 9.97818 8.00093 10.7273 8H18.9091C19.2955 8 19.6195 8.13333 19.8814 8.4C20.1432 8.66667 20.2736 8.9963 20.2727 9.38889C20.2718 9.78148 20.1409 10.1116 19.88 10.3792C19.6191 10.6468 19.2955 10.7796 18.9091 10.7778H10.7273V30.2222H18.9091C19.2955 30.2222 19.6195 30.3555 19.8814 30.6222C20.1432 30.8889 20.2736 31.2185 20.2727 31.6111C20.2718 32.0037 20.1409 32.3338 19.88 32.6014C19.6191 32.869 19.2955 33.0018 18.9091 33H10.7273ZM27.3295 21.8889H17.5455C17.1591 21.8889 16.8355 21.7555 16.5745 21.4889C16.3136 21.2222 16.1827 20.8926 16.1818 20.5C16.1809 20.1074 16.3118 19.7778 16.5745 19.5111C16.8373 19.2444 17.1609 19.1111 17.5455 19.1111H27.3295L24.7727 16.5069C24.5227 16.2523 24.3977 15.9398 24.3977 15.5694C24.3977 15.1991 24.5227 14.875 24.7727 14.5972C25.0227 14.3194 25.3409 14.1745 25.7273 14.1625C26.1136 14.1505 26.4432 14.2838 26.7159 14.5625L31.5909 19.5278C31.8636 19.8055 32 20.1296 32 20.5C32 20.8704 31.8636 21.1944 31.5909 21.4722L26.7159 26.4375C26.4432 26.7153 26.1195 26.8486 25.745 26.8375C25.3705 26.8264 25.0464 26.6815 24.7727 26.4028C24.5227 26.125 24.4036 25.7954 24.4155 25.4139C24.4273 25.0324 24.5577 24.7139 24.8068 24.4583L27.3295 21.8889Z" fill="#282828"/>
</svg>
