<svg width="40" height="40" viewBox="0 0 40 40" fill="none" xmlns="http://www.w3.org/2000/svg">
<path d="M18.6875 27.5L25.75 20.4375L23.9375 18.625L18.6562 23.9062L16.0312 21.2812L14.25 23.0625L18.6875 27.5ZM12.5 32.5C11.8125 32.5 11.2242 32.2554 10.735 31.7663C10.2458 31.2771 10.0008 30.6883 10 30V10C10 9.3125 10.245 8.72417 10.735 8.235C11.225 7.74583 11.8133 7.50083 12.5 7.5H22.5L30 15V30C30 30.6875 29.7554 31.2763 29.2662 31.7663C28.7771 32.2563 28.1883 32.5008 27.5 32.5H12.5ZM21.25 16.25V10H12.5V30H27.5V16.25H21.25Z" fill="#282828"/>
</svg>
