<svg width="48" height="48" viewBox="0 0 48 48" fill="none" xmlns="http://www.w3.org/2000/svg">
<path fill-rule="evenodd" clip-rule="evenodd" d="M15.7017 13.4411C15.4054 13.1549 15.0084 12.9965 14.5964 13.0001C14.1844 13.0036 13.7902 13.1689 13.4989 13.4603C13.2075 13.7516 13.0423 14.1458 13.0387 14.5578C13.0351 14.9698 13.1935 15.3667 13.4797 15.6631L21.7973 23.9807L13.4797 32.2983C13.3297 32.4432 13.2099 32.6166 13.1276 32.8083C13.0452 33.0001 13.0019 33.2063 13.0001 33.4149C12.9982 33.6236 13.038 33.8305 13.117 34.0236C13.196 34.2167 13.3127 34.3922 13.4603 34.5397C13.6078 34.6873 13.7833 34.804 13.9764 34.883C14.1695 34.962 14.3764 35.0018 14.5851 34.9999C14.7937 34.9981 14.9999 34.9548 15.1917 34.8724C15.3834 34.7901 15.5568 34.6703 15.7017 34.5203L24.0193 26.2027L32.3369 34.5203C32.6333 34.8065 33.0302 34.9649 33.4422 34.9613C33.8542 34.9577 34.2484 34.7925 34.5397 34.5011C34.8311 34.2098 34.9964 33.8156 34.9999 33.4036C35.0035 32.9916 34.8451 32.5946 34.5589 32.2983L26.2413 23.9807L34.5589 15.6631C34.8451 15.3667 35.0035 14.9698 34.9999 14.5578C34.9964 14.1458 34.8311 13.7516 34.5397 13.4603C34.2484 13.1689 33.8542 13.0036 33.4422 13.0001C33.0302 12.9965 32.6333 13.1549 32.3369 13.4411L24.0193 21.7587L15.7017 13.4411Z" fill="#282828"/>
</svg>
