<svg width="48" height="48" viewBox="0 0 48 48" fill="none" xmlns="http://www.w3.org/2000/svg">
<path fill-rule="evenodd" clip-rule="evenodd" d="M25.3245 20.1641L35.375 17.25L32.8734 27.4111L29.7527 24.4152L24.7188 29.6589C24.5479 29.8369 24.3118 29.9375 24.065 29.9375C23.8182 29.9375 23.5821 29.8369 23.4112 29.6589L19.715 25.8086L14.2788 31.4714C13.9321 31.8324 13.3585 31.8441 12.9974 31.4975C12.6363 31.1509 12.6246 30.5772 12.9712 30.2161L19.0612 23.8724C19.2321 23.6944 19.4682 23.5938 19.715 23.5938C19.9618 23.5938 20.1979 23.6944 20.3688 23.8724L24.065 27.7226L28.4452 23.16L25.3245 20.1641Z" fill="#8AD201"/>
</svg>
