<svg width="48" height="48" viewBox="0 0 48 48" fill="none" xmlns="http://www.w3.org/2000/svg">
<path d="M24 27.575C23.8667 27.575 23.7417 27.5543 23.625 27.513C23.5083 27.4717 23.4 27.4007 23.3 27.3L19.7 23.7C19.5 23.5 19.404 23.2667 19.412 23C19.42 22.7333 19.516 22.5 19.7 22.3C19.9 22.1 20.1377 21.996 20.413 21.988C20.6883 21.98 20.9257 22.0757 21.125 22.275L23 24.15V17C23 16.7167 23.096 16.4793 23.288 16.288C23.48 16.0967 23.7173 16.0007 24 16C24.2827 15.9993 24.5203 16.0953 24.713 16.288C24.9057 16.4807 25.0013 16.718 25 17V24.15L26.875 22.275C27.075 22.075 27.3127 21.979 27.588 21.987C27.8633 21.995 28.1007 22.0993 28.3 22.3C28.4833 22.5 28.5793 22.7333 28.588 23C28.5967 23.2667 28.5007 23.5 28.3 23.7L24.7 27.3C24.6 27.4 24.4917 27.471 24.375 27.513C24.2583 27.555 24.1333 27.5757 24 27.575ZM18 32C17.45 32 16.9793 31.8043 16.588 31.413C16.1967 31.0217 16.0007 30.5507 16 30V28C16 27.7167 16.096 27.4793 16.288 27.288C16.48 27.0967 16.7173 27.0007 17 27C17.2827 26.9993 17.5203 27.0953 17.713 27.288C17.9057 27.4807 18.0013 27.718 18 28V30H30V28C30 27.7167 30.096 27.4793 30.288 27.288C30.48 27.0967 30.7173 27.0007 31 27C31.2827 26.9993 31.5203 27.0953 31.713 27.288C31.9057 27.4807 32.0013 27.718 32 28V30C32 30.55 31.8043 31.021 31.413 31.413C31.0217 31.805 30.5507 32.0007 30 32H18Z" fill="#282828"/>
</svg>
