<svg width="40" height="40" viewBox="0 0 40 40" fill="none" xmlns="http://www.w3.org/2000/svg">
<path fill-rule="evenodd" clip-rule="evenodd" d="M18.75 7.10466C19.0781 6.84233 19.4804 6.68994 19.8999 6.66912C20.3195 6.6483 20.7349 6.7601 21.0874 6.98866L21.2487 7.10466L26.998 11.7047C27.2785 11.9289 27.5109 12.2074 27.6811 12.5236C27.8513 12.8398 27.956 13.1871 27.9887 13.5447L27.9994 13.786V17.146H30.666C31.3388 17.1458 31.9868 17.3999 32.4801 17.8573C32.9734 18.3148 33.2756 18.9418 33.326 19.6127L33.3327 19.8127V30.346C33.3329 30.7074 33.1996 31.0562 32.9585 31.3254C32.7173 31.5946 32.3853 31.7652 32.026 31.8047L31.866 31.8127H8.13268C7.77127 31.8129 7.42252 31.6796 7.15332 31.4384C6.88412 31.1973 6.71344 30.8653 6.67402 30.506L6.66602 30.346V19.8127C6.6658 19.1399 6.91989 18.4919 7.37734 17.9986C7.8348 17.5053 8.46181 17.2031 9.13268 17.1527L9.33268 17.146H11.9993V13.786C11.9993 13.4269 12.0718 13.0715 12.2125 12.7411C12.3532 12.4107 12.5591 12.1122 12.818 11.8633L13.0007 11.7033L18.75 7.10466ZM19.9993 9.51933L14.666 13.786V29.146H25.3327V13.786L19.9993 9.51933ZM30.666 19.8127H27.9994V29.146H30.666V19.8127ZM11.9993 19.8127H9.33268V29.146H11.9993V19.8127ZM19.9993 14.4793C20.5246 14.4793 21.0448 14.5828 21.5301 14.7838C22.0154 14.9848 22.4563 15.2795 22.8278 15.6509C23.1992 16.0223 23.4939 16.4633 23.6949 16.9486C23.8959 17.4339 23.9994 17.954 23.9994 18.4793C23.9994 19.0046 23.8959 19.5248 23.6949 20.0101C23.4939 20.4954 23.1992 20.9363 22.8278 21.3078C22.4563 21.6792 22.0154 21.9738 21.5301 22.1749C21.0448 22.3759 20.5246 22.4793 19.9993 22.4793C18.9385 22.4793 17.9211 22.0579 17.1709 21.3078C16.4208 20.5576 15.9993 19.5402 15.9993 18.4793C15.9993 17.4185 16.4208 16.401 17.1709 15.6509C17.9211 14.9008 18.9385 14.4793 19.9993 14.4793ZM19.9993 17.146C19.6457 17.146 19.3066 17.2865 19.0565 17.5365C18.8065 17.7866 18.666 18.1257 18.666 18.4793C18.666 18.833 18.8065 19.1721 19.0565 19.4221C19.3066 19.6722 19.6457 19.8127 19.9993 19.8127C20.353 19.8127 20.6921 19.6722 20.9422 19.4221C21.1922 19.1721 21.3327 18.833 21.3327 18.4793C21.3327 18.1257 21.1922 17.7866 20.9422 17.5365C20.6921 17.2865 20.353 17.146 19.9993 17.146Z" fill="#282828"/>
</svg>
