<svg width="40" height="40" viewBox="0 0 40 40" fill="none" xmlns="http://www.w3.org/2000/svg">
<path d="M10.6791 29.2857H15.6077V19.2857H10.6791V29.2857ZM18.072 29.2857H23.0006V11.7857H18.072V29.2857ZM25.4648 29.2857H30.3934V21.7857H25.4648V29.2857ZM8.21484 29.2857V19.2857C8.21484 18.5982 8.45634 18.0099 8.93934 17.5207C9.42234 17.0315 10.0023 16.7865 10.6791 16.7857H15.6077V11.7857C15.6077 11.0982 15.8492 10.5099 16.3322 10.0207C16.8152 9.53154 17.3951 9.28654 18.072 9.28571H23.0006C23.6782 9.28571 24.2586 9.53071 24.7416 10.0207C25.2246 10.5107 25.4657 11.099 25.4648 11.7857V19.2857H30.3934C31.0711 19.2857 31.6514 19.5307 32.1344 20.0207C32.6174 20.5107 32.8585 21.099 32.8577 21.7857V29.2857C32.8577 29.9732 32.6166 30.562 32.1344 31.052C31.6523 31.542 31.0719 31.7865 30.3934 31.7857H10.6791C10.0015 31.7857 9.42152 31.5411 8.93934 31.052C8.45717 30.5628 8.21567 29.974 8.21484 29.2857Z" fill="#282828"/>
</svg>
