<svg width="44" height="44" viewBox="0 0 44 44" fill="none" xmlns="http://www.w3.org/2000/svg">
<path d="M10.75 29.647V19.0591C10.75 18.1035 11.13 17.1869 11.8057 16.5112C12.4812 15.8356 13.3971 15.4557 14.3525 15.4556H15.5293C16.2197 15.4556 16.7793 16.0152 16.7793 16.7056C16.7793 17.3959 16.2197 17.9556 15.5293 17.9556H14.3525C14.0602 17.9557 13.78 18.072 13.5732 18.2788C13.3664 18.4857 13.25 18.7665 13.25 19.0591V29.647C13.25 29.9395 13.3664 30.2204 13.5732 30.4272C13.78 30.634 14.0602 30.7504 14.3525 30.7505H24.9414C25.2338 30.7504 25.5139 30.634 25.7207 30.4272C25.9276 30.2204 26.0439 29.9395 26.0439 29.647V28.4712C26.0439 27.7809 26.6036 27.2212 27.2939 27.2212C27.9843 27.2212 28.5439 27.7808 28.5439 28.4712V29.647C28.5439 30.6024 28.1647 31.5191 27.4893 32.1948C26.8137 32.8705 25.8969 33.2504 24.9414 33.2505H14.3525C13.3971 33.2504 12.4812 32.8704 11.8057 32.1948C11.13 31.5191 10.75 30.6025 10.75 29.647Z" fill="#282828"/>
<path d="M30.751 14.4712C30.7509 14.1474 30.6215 13.8368 30.3926 13.6079C30.1638 13.3792 29.8537 13.2506 29.5303 13.2505C29.2066 13.2505 28.8959 13.3791 28.667 13.6079L28.665 13.6099L19.1328 23.1089V24.8687H20.8936L30.3916 15.3364L30.3926 15.3345C30.6215 15.1055 30.751 14.795 30.751 14.4712ZM33.251 14.4712C33.251 15.4574 32.8581 16.4024 32.1611 17.1001L32.1621 17.1011L22.2979 27.0015C22.0633 27.2368 21.7444 27.3687 21.4121 27.3687H17.8828C17.1925 27.3687 16.6328 26.809 16.6328 26.1187V22.5894C16.6328 22.2571 16.7647 21.9382 17 21.7036L26.9004 11.8384C27.598 11.1417 28.5443 10.7505 29.5303 10.7505C30.5169 10.7506 31.4635 11.1426 32.1611 11.8403C32.8587 12.5381 33.2509 13.4845 33.251 14.4712Z" fill="#282828"/>
<path d="M25.2333 13.4701C25.7215 12.982 26.5127 12.982 27.0009 13.4701L30.5302 16.9994C31.0183 17.4875 31.0182 18.2788 30.5302 18.767C30.042 19.2551 29.2507 19.2552 28.7626 18.767L25.2333 15.2377C24.7452 14.7495 24.7451 13.9583 25.2333 13.4701Z" fill="#282828"/>
</svg>
