<svg width="48" height="48" viewBox="0 0 48 48" fill="none" xmlns="http://www.w3.org/2000/svg">
<path d="M32.9577 13.8333H30.541V12.625C30.541 12.3045 30.4137 11.9972 30.1871 11.7706C29.9605 11.544 29.6532 11.4167 29.3327 11.4167C29.0122 11.4167 28.7049 11.544 28.4783 11.7706C28.2517 11.9972 28.1243 12.3045 28.1243 12.625V13.8333H20.8743V12.625C20.8743 12.3045 20.747 11.9972 20.5204 11.7706C20.2938 11.544 19.9865 11.4167 19.666 11.4167C19.3455 11.4167 19.0382 11.544 18.8116 11.7706C18.585 11.9972 18.4577 12.3045 18.4577 12.625V13.8333H16.041C15.0796 13.8333 14.1576 14.2153 13.4778 14.8951C12.7979 15.5749 12.416 16.4969 12.416 17.4583V31.9583C12.416 32.9197 12.7979 33.8418 13.4778 34.5216C14.1576 35.2014 15.0796 35.5833 16.041 35.5833H32.9577C33.9191 35.5833 34.8411 35.2014 35.5209 34.5216C36.2008 33.8418 36.5827 32.9197 36.5827 31.9583V17.4583C36.5827 16.4969 36.2008 15.5749 35.5209 14.8951C34.8411 14.2153 33.9191 13.8333 32.9577 13.8333ZM34.166 31.9583C34.166 32.2788 34.0387 32.5861 33.8121 32.8128C33.5855 33.0394 33.2782 33.1667 32.9577 33.1667H16.041C15.7205 33.1667 15.4132 33.0394 15.1866 32.8128C14.96 32.5861 14.8327 32.2788 14.8327 31.9583V23.5H34.166V31.9583ZM34.166 21.0833H14.8327V17.4583C14.8327 17.1379 14.96 16.8305 15.1866 16.6039C15.4132 16.3773 15.7205 16.25 16.041 16.25H18.4577V17.4583C18.4577 17.7788 18.585 18.0861 18.8116 18.3128C19.0382 18.5394 19.3455 18.6667 19.666 18.6667C19.9865 18.6667 20.2938 18.5394 20.5204 18.3128C20.747 18.0861 20.8743 17.7788 20.8743 17.4583V16.25H28.1243V17.4583C28.1243 17.7788 28.2517 18.0861 28.4783 18.3128C28.7049 18.5394 29.0122 18.6667 29.3327 18.6667C29.6532 18.6667 29.9605 18.5394 30.1871 18.3128C30.4137 18.0861 30.541 17.7788 30.541 17.4583V16.25H32.9577C33.2782 16.25 33.5855 16.3773 33.8121 16.6039C34.0387 16.8305 34.166 17.1379 34.166 17.4583V21.0833Z" fill="#282828"/>
</svg>
