<svg width="48" height="48" viewBox="0 0 48 48" fill="none" xmlns="http://www.w3.org/2000/svg">
<path fill-rule="evenodd" clip-rule="evenodd" d="M12.1007 16.8237C11.7272 17.1823 11.7151 17.7757 12.0737 18.1492L18.3737 24.7117C18.5505 24.8959 18.7947 25 19.05 25C19.3053 25 19.5495 24.8959 19.7263 24.7117L23.55 20.7287L28.0812 25.4487L24.8529 28.5479L35.25 31.5625L32.6621 21.0511L29.4338 24.1502L24.2263 18.7258C24.0495 18.5416 23.8053 18.4375 23.55 18.4375C23.2947 18.4375 23.0505 18.5416 22.8737 18.7258L19.05 22.7088L13.4263 16.8508C13.0677 16.4772 12.4743 16.4651 12.1007 16.8237Z" fill="#FF3030"/>
</svg>
